<?xml version="1.0" encoding="UTF-8"?> <svg xmlns="http://www.w3.org/2000/svg" xmlns:xlink="http://www.w3.org/1999/xlink" version="1.1" id="Слой_1" x="0px" y="0px" viewBox="0 0 162 48.4" style="enable-background:new 0 0 162 48.4;" xml:space="preserve"> <style type="text/css"> .st0{fill:#FFFFFF;} </style> <g> <g> <g> <path class="st0" d="M0,0.7h10.1c1,0,1.9,0.1,2.9,0.3c0.9,0.2,1.8,0.6,2.5,1.1c0.7,0.5,1.3,1.2,1.8,2C17.7,5,18,6,18,7.1 c0,1.5-0.4,2.7-1.2,3.6c-0.8,0.9-1.9,1.6-3.2,2v0.1c1.6,0.2,3,0.9,4,1.9c1,1,1.6,2.4,1.6,4.2c0,1.4-0.3,2.6-0.8,3.6 c-0.6,1-1.3,1.7-2.2,2.3s-2,1-3.1,1.3c-1.2,0.3-2.4,0.4-3.6,0.4H0V0.7z M4.6,11.1h4.1c1.5,0,2.7-0.3,3.5-0.9 c0.8-0.6,1.2-1.5,1.2-2.6c0-1.2-0.4-2-1.2-2.5C11.3,4.7,10,4.4,8.3,4.4H4.6V11.1z M4.6,22.6h4.1c0.6,0,1.2,0,1.9-0.1 c0.7-0.1,1.3-0.3,1.9-0.5c0.6-0.3,1-0.7,1.4-1.2c0.4-0.5,0.6-1.2,0.6-2c0-1.4-0.5-2.3-1.4-2.8c-0.9-0.5-2.3-0.8-4.2-0.8H4.6V22.6 z"></path> <path class="st0" d="M24.1,13.5c0-2.1,0.3-3.9,1-5.6c0.7-1.7,1.7-3.1,2.9-4.2c1.2-1.2,2.7-2.1,4.4-2.7C34.1,0.3,36,0,38,0 c2,0,3.9,0.3,5.6,0.9c1.7,0.6,3.2,1.5,4.4,2.7c1.2,1.2,2.2,2.6,2.9,4.2c0.7,1.7,1,3.5,1,5.6c0,2-0.3,3.9-1,5.5 c-0.7,1.7-1.7,3.1-2.9,4.3c-1.2,1.2-2.7,2.1-4.4,2.8c-1.7,0.7-3.6,1-5.6,1c-2,0-3.8-0.3-5.5-1c-1.7-0.7-3.1-1.6-4.4-2.8 c-1.2-1.2-2.2-2.6-2.9-4.3C24.5,17.3,24.1,15.5,24.1,13.5z M29.1,13.5c0,1.4,0.2,2.7,0.6,3.8c0.4,1.2,1,2.2,1.8,3 c0.8,0.9,1.7,1.5,2.8,2c1.1,0.5,2.3,0.7,3.6,0.7c1.3,0,2.5-0.2,3.6-0.7c1.1-0.5,2-1.1,2.8-2c0.8-0.8,1.4-1.9,1.8-3 c0.4-1.2,0.6-2.4,0.6-3.8c0-1.3-0.2-2.6-0.6-3.7c-0.4-1.1-1-2.1-1.8-3c-0.8-0.8-1.7-1.5-2.8-2C40.5,4.3,39.3,4,38,4 c-1.3,0-2.5,0.2-3.6,0.7c-1.1,0.5-2,1.2-2.8,2c-0.8,0.9-1.4,1.8-1.8,3C29.3,10.9,29.1,12.1,29.1,13.5z"></path> <path class="st0" d="M58.1,0.7h6.1l12,19.3h0.1V0.7h4.6v25.8H75L62.8,6.5h-0.1v19.9h-4.6V0.7z"></path> <path class="st0" d="M107,6.7c-0.7-0.9-1.6-1.6-2.7-2c-1.1-0.4-2.2-0.6-3.2-0.6c-1.3,0-2.5,0.2-3.6,0.7c-1.1,0.5-2,1.2-2.8,2 c-0.8,0.9-1.4,1.8-1.8,3c-0.4,1.1-0.6,2.4-0.6,3.7c0,1.4,0.2,2.7,0.6,3.9c0.4,1.2,1,2.2,1.8,3c0.8,0.8,1.7,1.5,2.7,1.9 c1.1,0.5,2.3,0.7,3.6,0.7c1.4,0,2.6-0.3,3.7-0.8c1.1-0.5,1.9-1.3,2.6-2.2l3.7,2.6c-1.1,1.4-2.5,2.5-4.2,3.3 c-1.7,0.8-3.6,1.2-5.8,1.2c-2,0-3.9-0.3-5.6-1c-1.7-0.7-3.1-1.6-4.4-2.8c-1.2-1.2-2.2-2.6-2.8-4.3c-0.7-1.7-1-3.5-1-5.5 c0-2.1,0.4-3.9,1.1-5.6c0.7-1.7,1.7-3.1,2.9-4.2c1.3-1.2,2.7-2.1,4.4-2.7c1.7-0.6,3.5-0.9,5.5-0.9c0.8,0,1.7,0.1,2.6,0.2 c0.9,0.2,1.8,0.4,2.6,0.7c0.8,0.3,1.6,0.7,2.3,1.2c0.7,0.5,1.3,1.1,1.9,1.7L107,6.7z"></path> <path class="st0" d="M115.5,0.7h4.6v10.4h12.1V0.7h4.6v25.8h-4.6V15h-12.1v11.4h-4.6V0.7z"></path> <path class="st0" d="M144.3,0.7h17.1v4h-12.5v6.6h11.8v3.9h-11.8v7.3H162v4.1h-17.7V0.7z"></path> </g> </g> <g> <path class="st0" d="M4.1,48H2.7v-8.5l-1.9,1.6l-0.8-1l2.9-2.3h1.2V48z"></path> <path class="st0" d="M14.4,37.5c0.6,0,1.1,0.1,1.6,0.4c0.4,0.3,0.8,0.7,1.1,1.1c0.3,0.5,0.5,1,0.6,1.7c0.1,0.7,0.2,1.3,0.2,2.1 c0,0.7-0.1,1.4-0.2,2.1c-0.1,0.6-0.3,1.2-0.6,1.7c-0.3,0.5-0.6,0.9-1.1,1.1c-0.4,0.3-1,0.4-1.6,0.4c-0.6,0-1.1-0.1-1.6-0.4 c-0.4-0.3-0.8-0.7-1.1-1.1c-0.3-0.5-0.5-1-0.6-1.7c-0.1-0.6-0.2-1.3-0.2-2.1c0-0.7,0.1-1.4,0.2-2.1c0.1-0.7,0.3-1.2,0.6-1.7 c0.3-0.5,0.6-0.9,1.1-1.1C13.2,37.7,13.8,37.5,14.4,37.5z M14.4,38.7c-0.4,0-0.8,0.1-1,0.4c-0.3,0.3-0.5,0.6-0.6,1 c-0.1,0.4-0.3,0.9-0.3,1.4c-0.1,0.5-0.1,0.9-0.1,1.4s0,0.9,0.1,1.4c0.1,0.5,0.2,0.9,0.3,1.3c0.1,0.4,0.4,0.8,0.6,1 c0.3,0.3,0.6,0.4,1,0.4c0.4,0,0.7-0.1,1-0.4c0.3-0.3,0.5-0.6,0.6-1c0.2-0.4,0.3-0.9,0.3-1.3c0.1-0.5,0.1-0.9,0.1-1.4 s0-0.9-0.1-1.4c-0.1-0.5-0.2-0.9-0.3-1.4c-0.2-0.4-0.4-0.8-0.6-1C15.1,38.8,14.8,38.7,14.4,38.7z"></path> <path class="st0" d="M25.8,37.5c0.6,0,1.1,0.1,1.6,0.4c0.4,0.3,0.8,0.7,1.1,1.1c0.3,0.5,0.5,1,0.6,1.7c0.1,0.7,0.2,1.3,0.2,2.1 c0,0.7-0.1,1.4-0.2,2.1c-0.1,0.6-0.3,1.2-0.6,1.7c-0.3,0.5-0.6,0.9-1.1,1.1c-0.4,0.3-1,0.4-1.6,0.4c-0.6,0-1.1-0.1-1.6-0.4 c-0.4-0.3-0.8-0.7-1.1-1.1c-0.3-0.5-0.5-1-0.6-1.7c-0.1-0.6-0.2-1.3-0.2-2.1c0-0.7,0.1-1.4,0.2-2.1c0.1-0.7,0.3-1.2,0.6-1.7 c0.3-0.5,0.6-0.9,1.1-1.1C24.6,37.7,25.2,37.5,25.8,37.5z M25.8,38.7c-0.4,0-0.8,0.1-1,0.4c-0.3,0.3-0.5,0.6-0.6,1 c-0.1,0.4-0.3,0.9-0.3,1.4c-0.1,0.5-0.1,0.9-0.1,1.4s0,0.9,0.1,1.4c0.1,0.5,0.2,0.9,0.3,1.3c0.1,0.4,0.4,0.8,0.6,1 c0.3,0.3,0.6,0.4,1,0.4c0.4,0,0.7-0.1,1-0.4c0.3-0.3,0.5-0.6,0.6-1c0.2-0.4,0.3-0.9,0.3-1.3c0.1-0.5,0.1-0.9,0.1-1.4 s0-0.9-0.1-1.4c-0.1-0.5-0.2-0.9-0.3-1.4c-0.2-0.4-0.4-0.8-0.6-1C26.5,38.8,26.2,38.7,25.8,38.7z"></path> <path class="st0" d="M33.5,40.2c0-0.4,0.1-0.7,0.2-1c0.1-0.3,0.3-0.6,0.5-0.8c0.2-0.2,0.5-0.4,0.8-0.5c0.3-0.1,0.6-0.2,1-0.2 c0.4,0,0.7,0.1,1,0.2c0.3,0.1,0.6,0.3,0.8,0.5c0.2,0.2,0.4,0.5,0.5,0.8c0.1,0.3,0.2,0.6,0.2,1c0,0.4-0.1,0.7-0.2,1 c-0.1,0.3-0.3,0.6-0.5,0.8c-0.2,0.2-0.5,0.4-0.8,0.5c-0.3,0.1-0.6,0.2-1,0.2c-0.4,0-0.7-0.1-1-0.2c-0.3-0.1-0.6-0.3-0.8-0.5 c-0.2-0.2-0.4-0.5-0.5-0.8C33.6,40.8,33.5,40.5,33.5,40.2z M37.4,40.2c0-0.2,0-0.4-0.1-0.5c-0.1-0.2-0.2-0.3-0.3-0.4 c-0.1-0.1-0.3-0.2-0.4-0.3c-0.2-0.1-0.3-0.1-0.5-0.1c-0.2,0-0.4,0-0.5,0.1c-0.2,0.1-0.3,0.2-0.4,0.3c-0.1,0.1-0.2,0.3-0.3,0.4 c-0.1,0.2-0.1,0.3-0.1,0.5c0,0.2,0,0.4,0.1,0.5c0.1,0.2,0.2,0.3,0.3,0.4c0.1,0.1,0.3,0.2,0.4,0.3c0.2,0.1,0.3,0.1,0.5,0.1 c0.2,0,0.4,0,0.5-0.1c0.2-0.1,0.3-0.2,0.4-0.3c0.1-0.1,0.2-0.3,0.3-0.4C37.3,40.5,37.4,40.4,37.4,40.2z M36.5,48.4l-1-0.5 l6.2-10.6l1,0.5L36.5,48.4z M39.7,45.6c0-0.4,0.1-0.7,0.2-1c0.1-0.3,0.3-0.6,0.5-0.8c0.2-0.2,0.5-0.4,0.8-0.5 c0.3-0.1,0.6-0.2,1-0.2c0.4,0,0.7,0.1,1,0.2c0.3,0.1,0.6,0.3,0.8,0.5c0.2,0.2,0.4,0.5,0.5,0.8c0.1,0.3,0.2,0.6,0.2,1 c0,0.4-0.1,0.7-0.2,1c-0.1,0.3-0.3,0.6-0.5,0.8c-0.2,0.2-0.5,0.4-0.8,0.5c-0.3,0.1-0.6,0.2-1,0.2c-0.4,0-0.7-0.1-1-0.2 c-0.3-0.1-0.6-0.3-0.8-0.5c-0.2-0.2-0.4-0.5-0.5-0.8S39.7,45.9,39.7,45.6z M43.6,45.6c0-0.2,0-0.4-0.1-0.5 c-0.1-0.2-0.2-0.3-0.3-0.4c-0.1-0.1-0.3-0.2-0.4-0.3c-0.2-0.1-0.3-0.1-0.5-0.1c-0.2,0-0.4,0-0.5,0.1c-0.2,0.1-0.3,0.2-0.4,0.3 c-0.1,0.1-0.2,0.3-0.3,0.4c-0.1,0.2-0.1,0.3-0.1,0.5c0,0.2,0,0.4,0.1,0.5c0.1,0.2,0.2,0.3,0.3,0.4c0.1,0.1,0.3,0.2,0.4,0.3 c0.2,0.1,0.3,0.1,0.5,0.1c0.2,0,0.4,0,0.5-0.1c0.2-0.1,0.3-0.2,0.4-0.3c0.1-0.1,0.2-0.3,0.3-0.4C43.6,46,43.6,45.8,43.6,45.6z"></path> <path class="st0" d="M64.6,46.4c-0.4,0.5-0.9,1-1.6,1.3c-0.6,0.3-1.4,0.5-2.3,0.5c-0.8,0-1.5-0.1-2.1-0.4 c-0.7-0.3-1.2-0.6-1.7-1.1c-0.5-0.5-0.8-1-1.1-1.7c-0.3-0.7-0.4-1.4-0.4-2.2c0-0.8,0.1-1.5,0.4-2.2c0.3-0.7,0.6-1.2,1.1-1.7 c0.5-0.5,1.1-0.8,1.7-1.1c0.7-0.3,1.4-0.4,2.2-0.4c0.3,0,0.7,0,1,0.1c0.4,0.1,0.7,0.2,1,0.3c0.3,0.1,0.6,0.3,0.9,0.5 c0.3,0.2,0.5,0.4,0.7,0.7L63.3,40c-0.2-0.3-0.6-0.6-1.1-0.9c-0.5-0.2-0.9-0.3-1.5-0.3c-0.6,0-1.1,0.1-1.6,0.3 c-0.5,0.2-0.9,0.5-1.2,0.9c-0.3,0.4-0.6,0.8-0.8,1.3c-0.2,0.5-0.3,1-0.3,1.6c0,0.6,0.1,1.1,0.3,1.6c0.2,0.5,0.4,0.9,0.8,1.3 c0.3,0.4,0.7,0.7,1.2,0.9c0.5,0.2,1,0.3,1.6,0.3c0.6,0,1.1-0.1,1.6-0.3c0.5-0.2,0.9-0.6,1.2-1L64.6,46.4z"></path> <path class="st0" d="M70.4,48h-1.4V37.8h1.4V48z"></path> <path class="st0" d="M83.4,39.9c-0.3-0.3-0.7-0.6-1.2-0.8c-0.5-0.2-1-0.3-1.6-0.3c-0.6,0-1.1,0.1-1.6,0.3 c-0.5,0.2-0.9,0.5-1.2,0.9c-0.3,0.4-0.6,0.8-0.8,1.3c-0.2,0.5-0.3,1-0.3,1.6c0,0.6,0.1,1.1,0.3,1.6c0.2,0.5,0.4,0.9,0.8,1.3 c0.3,0.4,0.7,0.7,1.2,0.9c0.5,0.2,1,0.3,1.6,0.3c0.5,0,0.9,0,1.3-0.1c0.4-0.1,0.8-0.2,1-0.4v-2.8h-2.3v-1.2h3.7v4.9 c-0.5,0.3-1.1,0.5-1.7,0.7c-0.6,0.2-1.3,0.2-2.1,0.2c-0.8,0-1.5-0.1-2.2-0.4c-0.7-0.3-1.2-0.6-1.7-1.1c-0.5-0.5-0.9-1-1.1-1.7 c-0.3-0.7-0.4-1.4-0.4-2.2c0-0.8,0.1-1.5,0.4-2.2c0.3-0.7,0.6-1.2,1.1-1.7c0.5-0.5,1.1-0.8,1.7-1.1c0.7-0.3,1.4-0.4,2.2-0.4 c0.8,0,1.5,0.1,2.2,0.4c0.6,0.2,1.2,0.6,1.6,1L83.4,39.9z"></path> <path class="st0" d="M90.1,48h-1.6L93,37.8h1.3L98.6,48H97l-1-2.5h-4.8L90.1,48z M91.7,44.2h3.8l-1.9-4.8L91.7,44.2z"></path> <path class="st0" d="M104.2,48h-1.4V37.8h3.3c0.5,0,1,0,1.4,0.2c0.4,0.1,0.8,0.3,1.2,0.5c0.3,0.2,0.6,0.5,0.8,0.9 c0.2,0.4,0.3,0.8,0.3,1.3c0,0.7-0.2,1.3-0.7,1.8c-0.5,0.5-1.1,0.8-1.8,0.9L110,48h-1.7l-2.6-4.5h-1.5V48z M104.2,42.2h1.6 c0.3,0,0.6,0,0.9-0.1c0.3-0.1,0.5-0.2,0.8-0.3c0.2-0.1,0.4-0.3,0.5-0.5c0.1-0.2,0.2-0.5,0.2-0.8s-0.1-0.6-0.2-0.8 c-0.1-0.2-0.3-0.4-0.5-0.5c-0.2-0.1-0.4-0.2-0.7-0.3c-0.3-0.1-0.6-0.1-0.9-0.1h-1.7V42.2z"></path> <path class="st0" d="M122.3,46.7h4.5V48h-6V37.8h1.4V46.7z"></path> <path class="st0" d="M132.5,46.7h5.3V48h-6.7V37.8h6.5V39h-5.1v3h4.8v1.2h-4.8V46.7z"></path> <path class="st0" d="M143,48h-1.6l4.4-10.2h1.3l4.4,10.2h-1.6l-1-2.5H144L143,48z M144.5,44.2h3.8l-1.9-4.8L144.5,44.2z"></path> <path class="st0" d="M157.1,48h-1.4V37.8h6.3V39h-4.9v3.2h4.6v1.2h-4.6V48z"></path> </g> </g> </svg> 