<?xml version="1.0" encoding="UTF-8"?> <svg xmlns="http://www.w3.org/2000/svg" viewBox="0 0 373.87 79.93"> <defs> <style>.cls-1{fill:#fff;}</style> </defs> <g id="Слой_2" data-name="Слой 2"> <g id="Слой_1-2" data-name="Слой 1"> <g id="Слой-1"> <path class="cls-1" d="M365.37,8.78a1.3,1.3,0,1,0,0-2.59h-1.72V8.78Zm1,1.44L369,14h-2.16l-2.3-3.46h-.86V14h-1.88V4.46h3.6a3.17,3.17,0,0,1,3.17,3,2.93,2.93,0,0,1-2.16,2.73m-1.44-8.35A7.11,7.11,0,0,0,358,9.21a6.92,6.92,0,1,0,13.82,0,7.11,7.11,0,0,0-6.91-7.34m0,16.56A9,9,0,0,1,356,9.21a8.93,8.93,0,1,1,17.85,0,9,9,0,0,1-8.93,9.22"></path> <path class="cls-1" d="M30.64,13.58H0L14.82,29.09h18v0c7.86.41,14.6,7.31,14.6,16.68,0,9.65-7.26,16.61-15.32,16.91H15.52V55H0V78.24H30.64A32.35,32.35,0,0,0,63,45.81C63,28,50.44,13.58,30.64,13.58"></path> <rect class="cls-1" x="97.42" y="13.58" width="48.65" height="13.93"></rect> <rect class="cls-1" x="97.42" y="38.94" width="48.65" height="13.93"></rect> <rect class="cls-1" x="97.42" y="64.31" width="48.65" height="13.93"></rect> <path class="cls-1" d="M198.46,13.65V52.79c0,7.83,8.11,12.53,15.42,12.53s15.41-4.7,15.41-12.53V13.65h15.13V52.79c0,16.18-14.37,27.14-30.54,27.14s-30.55-11-30.55-27.14V13.65Z"></path> <path class="cls-1" d="M325.18,37.79h-29.9a5.62,5.62,0,0,1-5.55-4.51,5.24,5.24,0,0,1,5.08-5.55h36.63l13.84-14.91h-50c-10.87,0-20,8.67-20,19.54-.46,10.74,8.67,20.1,19.53,20.1h30.37a6.2,6.2,0,0,1,6,5.32,5.78,5.78,0,0,1-6,5.78H282.43L268.6,78.24h56.58a20.18,20.18,0,0,0,20.46-20C346.1,47,337,37.79,325.18,37.79"></path> </g> </g> </g> </svg> 