<?xml version="1.0" encoding="UTF-8"?> <svg xmlns="http://www.w3.org/2000/svg" viewBox="0 0 897.17 184.53"> <defs> <style>.cls-1{fill:#dfb95e;}</style> </defs> <g id="Слой_2" data-name="Слой 2"> <g id="Слой_1-2" data-name="Слой 1"> <path class="cls-1" d="M766.21,167.41c0,4.68-2,7.42-5.28,7.42s-5.4-2.74-5.39-7.32,2.07-7.25,5.37-7.25,5.3,2.7,5.3,7.15m6.26.2c0-7.54-4.51-12.32-11.5-12.32s-11.7,5.33-11.7,12.28c0,7.15,4.51,12.29,11.77,12.3S772.47,174.5,772.47,167.61Zm-47.66,2.53c-.44,3-2,4.51-4.72,4.51-3.33,0-5.5-2.77-5.5-7s2.14-7.22,5.51-7.22a4.31,4.31,0,0,1,4.64,3.7h6c-.42-5.57-5.3-8.84-10.54-8.83-7,0-11.83,5-11.83,12.21s4.45,12.37,11.72,12.37c4.65,0,7.85-1.82,9.69-5.57a8.06,8.06,0,0,0,1.09-4.15Zm-41,0c-.42,3-2,4.52-4.71,4.52-3.33,0-5.5-2.77-5.5-7s2.14-7.22,5.5-7.22a4.29,4.29,0,0,1,4.64,3.7h6c-.43-5.57-5.3-8.83-10.55-8.83-7,0-11.83,5-11.82,12.22s4.44,12.36,11.72,12.37c4.65,0,7.84-1.82,9.69-5.57a8,8,0,0,0,1.09-4.16Zm-42.79.45h-5.33l2.7-8.18Zm.47-14.76h-6.2l-8.8,23.46h6.27l1.54-4.28h8.11l1.51,4.28h6.33ZM595,174.42v-5.37h4.68c1.91,0,3.66.43,3.66,2.7s-1.65,2.67-3.5,2.67Zm0-9.4v-4.55h4.22c1.65,0,3.2.33,3.2,2.27,0,1.58-1,2.28-3,2.28Zm-6,14.24h11.4c2.54,0,4.81-.06,6.82-1.78a6.62,6.62,0,0,0,2.31-5.27,5.6,5.6,0,0,0-4.22-5.76c2-1.06,3.07-2.41,3.07-4.75,0-4.35-3.53-5.9-7.58-5.9H589Zm-25.59-11.9c0,4.67-1.94,7.41-5.27,7.41s-5.4-2.74-5.41-7.32,2.09-7.25,5.38-7.25S563.4,162.91,563.4,167.36Zm6.27.2c0-7.55-4.51-12.33-11.5-12.33s-11.7,5.33-11.7,12.28c0,7.16,4.51,12.3,11.76,12.3S569.67,174.44,569.67,167.56ZM528.6,155.78H508.49V161h7v18.25h6.19V161h7Zm-54.41,0H468v8.36h-7.95v-8.37h-6.16v23.46h6.16l0-9.68H468v9.69h6.16Zm-47.34,14.75h-5.34l2.7-8.19Zm.46-14.77h-6.19l-8.81,23.46h6.26l1.55-4.28h8.11l1.52,4.28h6.32Zm-31.55,0h-7.58l-7.84,9v-9h-6V179.2h6.06V172l2.51-2.6,6.32,9.85h7.62l-9.79-14.27ZM348.65,167.3c0,4.68-1.94,7.41-5.27,7.41S338,172,338,167.4s2.09-7.26,5.38-7.25S348.65,162.85,348.65,167.3Zm6.26.19c0-7.54-4.51-12.32-11.49-12.32s-11.71,5.34-11.71,12.29c0,7.15,4.51,12.29,11.77,12.29C350.59,179.76,354.91,174.38,354.91,167.49Zm-47.93-.2c0,4.67-1.94,7.41-5.27,7.41s-5.41-2.74-5.41-7.32,2.08-7.25,5.37-7.24S307,162.84,307,167.29Zm6.26.2c0-7.55-4.5-12.33-11.49-12.33s-11.7,5.33-11.7,12.29c0,7.15,4.5,12.29,11.76,12.29S313.24,174.37,313.24,167.49Zm-42.52-11.78h-6.16v8.37h-7.94v-8.36h-6.17v23.46h6.16v-9.69h7.94v9.69h6.16Z"></path> <path class="cls-1" d="M351.8,14.8,352,88.28h42.63v9.9H342.15l0-5-.2-78.43Zm-47,83.37H249V61.67H287.8v9.93H259V88.27h45.85Zm178.6-73.46-45.87,0V41.38h28.86v9.91H427.63V14.82h4.95l50.82,0Zm-178.2.23-45.85,0V41.58h28.83v9.93H249.42V15h5l50.81,0Zm393.06-.08H652.41V41.52h28.85v9.91H642.49V15h5l50.82,0Zm0,73.59H642.48V62h38.77V71.9H652.39V88.57h45.86ZM735.51,15l54.23,39,0-39h9.87l0,48.64V73.2l-7.82-5.63L735.51,27.1Zm98,0,63.63,0v8.93H870.31l0,74.46h-9.91l0-74.45H833.54Zm-312.43.44,39.82,24.3L600.86,15V26.25L563.31,49.66,561,51.09l-2.34-1.43L521.12,26.59ZM561,63.94l.11.06,39.77-24.66V98.25h-9.3l0-41.69L561.09,75.37l-.12.14-.12-.14L530.39,56.54V98.23h-9.29l0-58.92L560.86,64Zm238.65,34.5-54.23-39,.05,39h-9.88l0-48.64V40.19l7.83,5.62,56.3,40.48Zm-316.23-.23H427.61V61.75h38.75v9.91H437.53V88.34H483.4Z"></path> <rect class="cls-1" x="107.63" y="111.15" width="76.94" height="7.67"></rect> <rect class="cls-1" x="107.63" y="131.79" width="76.94" height="7.67"></rect> <rect class="cls-1" x="107.62" y="152.42" width="76.94" height="7.67"></rect> <rect class="cls-1" x="107.62" y="173.05" width="76.94" height="7.67"></rect> <polygon class="cls-1" points="93.04 0.03 93.02 79.64 91.42 79.64 91.44 0.03 93.04 0.03"></polygon> <path class="cls-1" d="M0,107.31c4.77,0,8.17,2.24,11.58,4.45,2.48,1.6,4.95,3.21,7.53,3.21v0c2.55,0,5-1.62,7.52-3.23,3.45-2.23,6.89-4.46,11.69-4.46s8.25,2.24,11.69,4.47c2.47,1.61,5,3.21,7.53,3.21s5-1.6,7.52-3.21c3.45-2.23,6.89-4.46,11.69-4.46V115c-2.58,0-5,1.6-7.53,3.21-3.44,2.23-6.88,4.46-11.69,4.46s-8.24-2.23-11.68-4.47c-2.47-1.6-5-3.21-7.52-3.21s-5.06,1.6-7.54,3.21c-3.43,2.22-6.86,4.44-11.69,4.44v0c-4.79,0-8.24-2.24-11.68-4.47C5,116.58,2.54,115,0,115Z"></path> <path class="cls-1" d="M0,127.92c4.75,0,8.17,2.25,11.59,4.46,2.47,1.61,4.94,3.21,7.52,3.21s5.06-1.6,7.53-3.2c3.44-2.23,6.89-4.46,11.69-4.46S46.6,130.16,50,132.4c2.48,1.6,5,3.21,7.52,3.22s5-1.62,7.53-3.22c3.44-2.23,6.88-4.46,11.68-4.46v7.67c-2.57,0-5,1.6-7.52,3.2-3.43,2.22-6.86,4.45-11.69,4.44S49.3,141,45.88,138.8c-2.48-1.6-5-3.2-7.53-3.2s-5.06,1.6-7.53,3.2c-3.44,2.23-6.89,4.46-11.69,4.46S10.88,141,7.44,138.79C5,137.21,2.56,135.63,0,135.59Z"></path> <path class="cls-1" d="M0,148.54c4.75,0,8.17,2.25,11.59,4.47,2.48,1.6,5,3.2,7.53,3.2s5.05-1.6,7.52-3.2c3.44-2.23,6.89-4.46,11.69-4.46v0c4.83,0,8.26,2.22,11.69,4.45,2.47,1.6,4.95,3.21,7.53,3.21s5-1.6,7.52-3.21c3.44-2.23,6.89-4.46,11.69-4.46v7.67c-2.58,0-5.06,1.6-7.52,3.21-3.45,2.23-6.9,4.46-11.7,4.45s-8.24-2.23-11.69-4.46c-2.48-1.61-5-3.22-7.52-3.22h0c-2.58,0-5.05,1.6-7.53,3.2-3.44,2.23-6.88,4.47-11.69,4.46s-8.24-2.23-11.69-4.46C5,157.84,2.55,156.25,0,156.21Z"></path> <path class="cls-1" d="M0,169.18c4.77,0,8.17,2.24,11.59,4.45,2.47,1.61,4.94,3.21,7.52,3.21v0c2.56,0,5-1.61,7.52-3.22,3.45-2.23,6.89-4.47,11.7-4.46s8.24,2.23,11.68,4.47c2.48,1.6,4.95,3.2,7.53,3.21s5.05-1.61,7.53-3.21c3.44-2.23,6.88-4.46,11.69-4.46v7.67c-2.57,0-5.05,1.6-7.53,3.2-3.44,2.23-6.89,4.46-11.68,4.46s-8.25-2.23-11.69-4.47c-2.47-1.6-5-3.2-7.53-3.2s-5,1.6-7.52,3.2c-3.43,2.23-6.87,4.45-11.69,4.45h0c-4.8,0-8.24-2.23-11.69-4.46C5,178.45,2.52,176.87,0,176.82Z"></path> <path class="cls-1" d="M12.1,0c3,11.42,5.54,22.29-.71,39.76C8.45,48,7.48,54,7.72,59.51s1.72,10.8,3.65,17.43H3.42C1.65,70.77.34,65.56.08,59.84c-.29-6.51.79-13.41,4.09-22.66C9.84,21.3,7.22,11.4,4.37.72L4.18,0Z"></path> <path class="cls-1" d="M32.62,0c3,11.41,5.53,22.29-.7,39.75C29,48,28,54,28.24,59.52S30,70.31,31.89,77H23.94c-1.78-6.17-3.08-11.37-3.34-17.09-.29-6.51.79-13.41,4.1-22.66,5.67-15.88,3-25.79.19-36.47L24.7,0Z"></path> <path class="cls-1" d="M53.14,0c3,11.41,5.53,22.28-.71,39.75C49.48,48,48.51,54,48.76,59.52S50.48,70.32,52.41,77h-8c-1.77-6.17-3.08-11.37-3.33-17.1-.29-6.5.78-13.41,4.09-22.66,5.67-15.87,3-25.78.2-36.46L45.22,0Z"></path> <path class="cls-1" d="M73.65,0c3,11.42,5.54,22.29-.7,39.76C70,48,69,54,69.28,59.53S71,70.33,72.94,77H65c-1.77-6.18-3.08-11.38-3.33-17.1-.3-6.51.78-13.41,4.09-22.66,5.67-15.88,3-25.78.19-36.47L65.74,0Z"></path> <path class="cls-1" d="M107.66,12.17c11.42,3,22.28,5.54,39.76-.69,8.25-2.94,14.25-3.91,19.76-3.66S178,9.54,184.6,11.49v-8C178.42,1.75,173.22.44,167.5.18,161-.11,154.1,1,144.84,4.26c-15.88,5.66-25.78,3-36.46.18l-.71-.19Z"></path> <path class="cls-1" d="M107.66,32.69c11.41,3,22.27,5.54,39.75-.69,8.25-2.94,14.25-3.91,19.76-3.66S178,30.06,184.59,32V24c-6.17-1.77-11.37-3.08-17.09-3.34-6.51-.3-13.41.78-22.67,4.08-15.88,5.66-25.78,3-36.46.17l-.71-.18Z"></path> <path class="cls-1" d="M107.65,53.2c11.42,3,22.28,5.55,39.75-.68,8.26-2.94,14.26-3.91,19.76-3.66s10.8,1.72,17.42,3.66v-8c-6.17-1.78-11.38-3.08-17.1-3.35-6.5-.28-13.4.79-22.66,4.09-15.88,5.66-25.79,3-36.47.18l-.7-.2Z"></path> <path class="cls-1" d="M107.65,73.72c11.41,3,22.28,5.54,39.75-.69,8.26-2.94,14.25-3.9,19.76-3.65S178,71.1,184.58,73v-8c-6.18-1.78-11.38-3.09-17.1-3.35-6.51-.29-13.41.79-22.66,4.09-15.89,5.66-25.79,3-36.47.17l-.71-.19Z"></path> <polygon class="cls-1" points="0.03 91.56 79.64 91.59 79.64 93.19 0.02 93.16 0.03 91.56"></polygon> <rect class="cls-1" x="104.97" y="91.61" width="79.61" height="1.6"></rect> <polygon class="cls-1" points="93.01 104.92 92.99 184.53 91.38 184.53 91.41 104.92 93.01 104.92"></polygon> </g> </g> </svg> 