<?xml version="1.0" encoding="UTF-8"?> <svg xmlns="http://www.w3.org/2000/svg" viewBox="0 0 85.61111450195312 34.51513671875" fill="none"><path d="M79.91834978020226 28.742122129657176C79.91834978020226 28.74586605594735 79.91834978020226 30.25441875580101 78.50813754423713 30.25441875580101C77.09967247387411 30.25441875580101 77.09967247387411 28.73563265742088 77.09967247387411 28.732387921302728V5.832712686477527C77.09967247387411 5.829343152816372 77.09967247387411 4.2598642924673005 78.50813754423713 4.2598642924673005C79.91834978020226 4.2598642924673005 79.91834978020226 5.832712686477527 79.91834978020226 5.837205398025735V28.742122129657176ZM85.32507853338392 2.257629984138867C85.13663424344522 1.7337274026498155 84.85384301099415 1.3088267120272357 84.47895119180484 0.9851842518486712C84.10006585123935 0.6585391627853883 83.6507946964186 0.41327205556530294 83.13263529785867 0.24901577581689238C82.61023278283655 0.08400721647924306 82.01694526338717 0 81.3530223345965 0H75.6637519440498C74.99833144474307 0 74.40204878426154 0.08400721647924306 73.87640153312127 0.24901577581689238C73.35424861318515 0.41327205556530294 72.9004847468162 0.6596648366233002 72.51336276841234 0.9859305411558457C72.13098309664268 1.3099523858651474 71.84245117721335 1.7337274026498155 71.65250931675858 2.258758153927639C71.45732595949757 2.7905479401346547 71.35923509069504 3.426566138309223 71.35923509069504 4.166116378161372V30.349514483571397C71.35923509069504 31.088565533251526 71.45732595949757 31.725282597666926 71.65250931675858 32.25667053578546C71.84245117721335 32.780570621323655 72.13098309664268 33.20563105280129 72.51336276841234 33.52910628427222C72.9004847468162 33.856575037119335 73.35424861318515 34.10192700666867 73.87640153312127 34.26616057326425C74.40204878426154 34.43114292511787 74.99833144474307 34.51400849367369 75.6637519440498 34.51400849367369H81.3530223345965C82.0179436437312 34.51400849367369 82.6112311631806 34.43114292511787 83.13338408311671 34.26616057326425C83.65204267184866 34.10192700666867 84.10006585123935 33.856575037119335 84.47895119180484 33.53035425970228C85.23297794664566 32.88015906064226 85.61111450195312 31.818381564749224 85.61111450195312 30.349514483571397V4.166116378161372C85.61111450195312 3.426566138309223 85.51551958401072 2.78979915487662 85.32507853338392 2.257629984138867ZM63.51820546364298 4.3547603441688825C63.70615056340965 4.418881321765244 63.86988493983321 4.516023729240929 64.00691264205354 4.645014469691684C64.14668589021998 4.775902132796128 64.25201501651686 4.948047863618278 64.32140245042805 5.159180346875427C64.38754514822112 5.3620512327855945 64.42099088974665 5.6020868270028785 64.42099088974665 5.878089073114422V13.719043821640682C64.42099088974665 13.995819812518862 64.38554838753302 14.234707269340491 64.31466338310575 14.43495740684754C64.24053364256034 14.643469141701567 64.12796625876913 14.81112216097551 63.976961231732155 14.934871404620022C63.832445676931485 15.053004758829278 63.66871130050792 15.14338313947405 63.48750526806356 15.201888227635152C63.306798425791214 15.260393315796254 63.110616688186155 15.29039464513484 62.89571531913023 15.29039464513484H61.50921461633621V4.2598642924673005H62.89571531913023C63.12584198843286 4.2598642924673005 63.33400429016647 4.291363192321955 63.51820546364298 4.3547603441688825ZM65.71763736157654 0H55.81669948967135V34.51400849367369H61.50921461633621V19.249496858958253H62.89571531913023C63.15304785280811 19.249496858958253 63.37643545478843 19.274631084119612 63.56587812507117 19.324125789675698C63.763557433192304 19.375866851005885 63.92504545384176 19.45501345278014 64.04859502141747 19.560766890723226C64.1771364907134 19.672510610730587 64.27397938408586 19.84203559314961 64.33388220472864 20.069291918963106C64.39203785976932 20.281921972736324 64.42099088974665 20.548190010493418 64.42099088974665 20.867721639605374V31.413787930324542C64.42099088974665 31.9197171696699 64.44145768679961 32.361500471910304 64.48314006616353 32.74013621738979C64.52482244552745 33.11627601200916 64.58672202685831 33.43101541546969 64.66809002489806 33.68435442777138C64.75195397379794 33.943184531965336 64.82209019296718 34.14959966809687 64.8787482774918 34.301353480391874C64.91394118461942 34.39445244747417 64.94289421459676 34.465587046987466 64.96585696250983 34.51400849367369H70.92369166560492C70.87002872211245 34.42390466762354 70.81686496879199 34.32082189710078 70.7629524302135 34.2065073477075C70.66211601546485 33.99210516882359 70.55653729408198 33.73127830394156 70.44646586115088 33.425274728491424C70.33464726261774 33.11552722675112 70.2517816940619 32.716424684218694 70.1953732046233 32.23171102718431C70.14195985621683 31.75049170135409 70.1132564213255 31.185408426623997 70.1132564213255 30.533965252133918V21.489887310506305C70.1132564213255 21.03422652148366 70.08380420117615 20.63033175329981 70.02340219036135 20.2770548685591C69.96399855989061 19.92602433959249 69.87564189944254 19.62451347569057 69.75733382867307 19.374369280489816C69.63927535298961 19.12235312214398 69.50249724585531 18.90036325264533 69.34724910235613 18.708349752976666C69.192749744115 18.518208216453083 69.02127792002508 18.35657043875202 68.83183524974233 18.225682775647577C68.63989662859947 18.093297542027063 68.43248311212389 17.982302607277738 68.21059308065965 17.89304740452002C67.98845345410939 17.804540987020328 67.75108852731243 17.737774301512246 67.49824870518275 17.69277230750437C67.23492588944059 17.645898350351406 66.97060469335439 17.604265890004683 66.70428673658009 17.56677670808575C66.4359720191177 17.528888174029202 66.16391337536514 17.49327095525536 65.88836040040842 17.462895233287757L64.86452135758914 17.348131412739654L65.88261971343016 17.191385698724417C66.09053242007775 17.159861839361163 66.30393621861761 17.124619013216336 66.52208232379168 17.08787861655544C66.7631911768788 17.04699494146675 67.00355124470791 17.004613695861995 67.243661717451 16.961483664999204C67.48776571157028 16.91723045624936 67.72513063836722 16.847843022338154 67.95725406835794 16.75484389329026C68.18713114257456 16.661844764242364 68.41001955438286 16.544834587920164 68.62641849395486 16.402340753316185C68.83932310232267 16.263191492864756 69.0347560546697 16.093691469954333 69.21171897065187 15.89528833608377C69.39017945715013 15.693540628060655 69.55041950236952 15.463264201706421 69.69094153579401 15.20338579815122C69.83121397413248 14.945753750370125 69.93604391025731 14.637478859637291 70.00618012942655 14.276714122316232C70.07781391911188 13.912180499196399 70.1132564213255 13.495157029488343 70.1132564213255 13.025269320563046V4.07424042700053C70.1132564213255 3.396939201599655 70.01541514760899 2.803277289521242 69.81673745914382 2.2962598156008704C69.62105491171077 1.7933531727471088 69.32653271021717 1.3714551110092474 68.93566680552313 1.0313119196944611C68.5408073794529 0.6881636035440962 68.07730930472948 0.43127534911931426 67.54342541575085 0.25989088330950055C67.00629679065403 0.08775713305148022 66.39753437587193 0 65.71763736157654 0ZM54.57646150728009 4.2598642924673005V0H42.434409358077424C42.48732351631187 0.09225458690632188 42.540487269632315 0.1950111366516647 42.59489899838284 0.3097649733963235C42.69773217381959 0.5272796030027873 42.80306130011645 0.7875448789413051 42.91138556744545 1.090560801211877C43.01247157728012 1.3714526150583874 43.09109402937375 1.7254757891062744 43.14525616303824 2.151127760937749C43.199168701616735 2.572651430046593 43.16647174534923 3.06917093464932 43.23960310555061 3.627590020582905C43.267807350269905 3.8387225038400543 43.267807350269905 30.675735260988464 43.23960310555061 30.88764148901225C43.16647174534923 31.445985696420028 43.199168701616735 31.942929512668975 43.14525616303824 32.36324763751239C43.09109402937375 32.789556044420074 43.01247157728012 33.1432322812984 42.9103871871014 33.424525943233384C42.80306130011645 33.72678559239335 42.69773217381959 33.98861083761944 42.59489899838284 34.2045105870194C42.540487269632315 34.32057230201476 42.48732351631187 34.42290628727949 42.434409358077424 34.51400849367369H54.57646150728009V30.25441875580101H48.933615802731524V19.249496858958253H54.57646150728009V15.264886027344462H48.933615802731524V4.2598642924673005H54.57646150728009ZM8.372367646153396 13.6046793532302L14.065956031688101 17.027127172620233V4.2122415500563015C14.065956031688101 3.4565674676478078 13.97218315787357 2.807794960578051 13.784687329261713 2.2685048420363887C13.60053607480241 1.7363506470037966 13.324533828690864 1.3080754308183407 12.956630671909878 0.9840585780107591C12.584983588838716 0.6577878815764936 12.138707575050109 0.4132770474670232 11.617428237915037 0.2482642450129117C11.091656189231761 0.08400721647924306 10.488235109290297 0 9.808313135486303 0H4.304866286475178C3.62422048692175 0 3.0185530512061827 0.08400721647924306 2.4893964931565886 0.24901577581689238C1.9636144606698707 0.41327205556530294 1.5109587964828088 0.6585391627853883 1.1318113810770016 0.9851842518486712C0.7575410536518596 1.3080754308183407 0.4751516692892803 1.7401020611465499 0.28764086497226193 2.2793796999339113C0.09637989448792038 2.8265395515375165 0 3.4869431896154106 0 4.258741114580249V14.088818941566755C0 14.508088767048916 0.04837527159532374 14.88799744746706 0.14513105628277748 15.225874315400858C0.24076166632249127 15.561529787069158 0.3843964000646296 15.856675976277788 0.5745329446864893 16.112810453542817C0.768418407500242 16.374211387122685 0.9855561485268284 16.61235005868628 1.226694953024283 16.826103290346552C1.4663336910548086 17.040605307264855 1.7288503146691503 17.229998058530402 2.0131166540785363 17.39350779937655L7.008405379626216 20.26130541863177C7.185792607254606 20.358822218736478 7.3530462743909295 20.475807435550077 7.510191340543786 20.612335947598382C7.666188269300989 20.74846510750907 7.812825382332759 20.905585214153323 7.951200898017549 21.083346834410733C8.091098943727008 21.264477988329293 8.195354811154024 21.450126813304667 8.26586542295228 21.640268349828247C8.337099860499968 21.832656242125932 8.372367646153396 22.029162453342806 8.372367646153396 22.231284553994936V28.72939278027059C8.372367646153396 28.843208139491846 8.371618860895362 29.215604007821042 8.198349952186161 29.564537938065154C8.0194651540417 29.92420445700776 7.664316306155903 30.25441875580101 6.963777778247355 30.25441875580101C6.261741679822737 30.25441875580101 5.906218439307922 29.92345567174973 5.728831211679531 29.563289962635093C5.554813517712295 29.214605627476995 5.553690339825244 28.843208139491846 5.553690339825244 28.72939278027059V21.127225650531557L0 18.041930873325892V30.349514483571397C0 31.074338613348868 0.09037763185951522 31.702070254667852 0.2703888526271453 32.23046305175425C0.4473991916756588 32.75286556677637 0.7132928368037366 33.17942356877007 1.0669366263208862 33.511135438079386C1.4220829782558253 33.84384568773275 1.8488581279743517 34.09468874917433 2.346513290218431 34.26166786171604C2.8471561056420684 34.4296453546018 3.423196604648067 34.51400849367369 4.073117249113477 34.51400849367369H9.762187963591371C10.428606843242145 34.51400849367369 11.024889503723678 34.43488685140804 11.550287159777938 34.27689316196275C12.073089026937678 34.12089623320555 12.5283504638227 33.88552806709667 12.916121389450206 33.57353420958227C13.295655677239331 33.26603306361607 13.58254026910098 32.849209269976825 13.774928161398662 32.32605796969667C13.969562409470448 31.793921246320096 14.065956031688101 31.150714709668396 14.065956031688101 30.39519038431151V20.842213021814995C14.065956031688101 20.407568139034524 14.015687581365379 20.013781971834142 13.915574992366157 19.660904439231047C13.816186229116367 19.309125125006407 13.667302760310491 18.997106307983397 13.469274019068948 18.72559677342006C13.266777525787797 18.449569567799916 13.040644377861357 18.200548550486214 12.789002612144536 17.979681858874617C12.538109631685751 17.7584158151254 12.262456818694622 17.564904744940666 11.963941095824838 17.40064621883648L6.783021016957808 14.347574167234905C6.605633789329417 14.250082326638802 6.442872833741302 14.139436825009893 6.296984505967565 14.01419001084931C6.149973000306777 13.88704627403504 6.0191102967109344 13.746050009947128 5.905844046678904 13.59080186644796C5.786587514582598 13.430287266633949 5.699204274969962 13.240145730110369 5.640699186808861 13.019254078990167C5.583317276534811 12.802880098926778 5.553690339825244 12.558351793161286 5.553690339825244 12.284970295452862V5.781346017776356C5.553690339825244 5.777951524606599 5.553690339825244 4.2598642924673005 6.963777778247355 4.2598642924673005C8.366726797209536 4.2598642924673005 8.372367646153396 5.777951524606599 8.372367646153396 5.781346017776356V13.6046793532302ZM26.651264094138632 4.2598642924673005V0H14.508088767048916C14.561352358403775 0.09225458690632188 14.614216597621015 0.19425960584768398 14.668603366862927 0.3097649733963235C14.771361663773872 0.5272796030027873 14.876740709087938 0.7875448789413051 14.984740502805126 1.090560801211877C15.0860012292 1.3714526150583874 15.16437408620762 1.7254757891062744 15.218012070191495 2.151127760937749C15.272773232062425 2.572651430046593 15.240126194812117 3.06917093464932 15.313257555013495 3.627590020582905C15.341386921206993 3.8387225038400543 15.341386921206993 30.675735260988464 15.313257555013495 30.88764148901225C15.240126194812117 31.445985696420028 15.272773232062425 31.942929512668975 15.218012070191495 32.36324763751239C15.16437408620762 32.789556044420074 15.0860012292 33.1432322812984 14.984740502805126 33.424525943233384C14.876740709087938 33.72753437765138 14.771361663773872 33.98861083761944 14.668603366862927 34.2045105870194C14.614216597621015 34.32057230201476 14.561352358403775 34.42290628727949 14.508088767048916 34.51400849367369H26.651264094138632V30.25441875580101H21.0068459405482V19.249496858958253H26.651264094138632V15.264886027344462H21.0068459405482V4.2598642924673005H26.651264094138632ZM37.60748998970054 0.001873016436349407H27.890254101099842V34.515256469103754H37.79219035334906C38.47208736764446 34.515256469103754 39.079851402082525 34.42839737917175 39.61772881243736 34.25592717473778C40.15086391615798 34.084954540819886 40.614861181053406 33.826873221883965 41.01046939238167 33.48492795404818C41.40158489216173 33.14522904198649 41.69560790348331 32.72391253679904 41.891540046002355 32.220479248313794C42.08896975903747 31.71305243845236 42.18855819835607 31.119265728830943 42.18855819835607 30.442114260481674V21.561121748053992C42.18855819835607 21.12123536846728 42.15286610105642 20.727823593895913 42.08048352611308 20.378689987582995C42.01059690202985 20.03517227070533 41.90601656099102 19.73328701417439 41.76499533739451 19.474132436368627C41.62447330397002 19.21350524755539 41.468725970298834 18.97873610965295 41.299001311811 18.77321951583106C41.13277098452732 18.569574885154253 40.95281292751301 18.393685228041935 40.76237187688621 18.245575504002698C40.56918528031329 18.097815213083873 40.36801164098801 17.973292224672722 40.161346909770465 17.873154676164898C39.95493177363893 17.77379087242371 39.74027999966902 17.698413156448233 39.51838996820478 17.645898350351406C39.29674953182654 17.594531681650235 39.088088039920905 17.546534546610218 38.89689820403608 17.50527647889251C38.682496025152176 17.458402521739547 38.50578270425601 17.420513987682998 38.365759861003546 17.392384621489498L37.50640397986587 17.219515064917918L38.37749083004609 17.121998264813215C38.51027541580422 17.107371992772936 38.66327720352929 17.081488982353545 38.83874254899539 17.04437419306363C39.01345910920346 17.005736873749047 39.207394491034414 16.95624216819296 39.41955031414421 16.895490724257755C39.62671423553378 16.836985636096653 39.82988463554716 16.75484389329026 40.03030948961441 16.650962418492263C40.23198231911172 16.546332158436233 40.42841365180279 16.420336559017613 40.622848223805775 16.27145309021174C40.814287654776614 16.1233184066639 40.99224895110284 15.947428749551579 41.15448575701032 15.744907296761827C41.317720943261854 15.541662018222642 41.467727589954784 15.307267272949218 41.60200974622899 15.044743161482296C41.73554311724515 14.786736721072183 41.83438277130572 14.484477071912226 41.90127425435681 14.138688039751859C41.96916411775194 13.790303218696973 42.003109049449506 13.395393873609537 42.003109049449506 12.95625627928086V4.074989212258564C42.003109049449506 3.3976879868576892 41.904269395388944 2.804051034287878 41.70534211183776 2.2973829934879224C41.51015875457674 1.7933531727471088 41.21613574325517 1.3714551110092474 40.82452105330308 1.0320582090016355C40.42966162723285 0.6892892773820081 39.96566436233743 0.4323985270063661 39.43203006844479 0.2610140611965524C38.89540063352001 0.08850467033408473 38.2866382187379 0.001873016436349407 37.60748998970054 0.001873016436349407ZM35.59176007507146 4.3547603441688825C35.780453960096175 4.418881321765244 35.94318995617569 4.514900551353877 36.08121603874006 4.645014469691684C36.220989286906516 4.775902132796128 36.3268176033754 4.948047863618278 36.39520665694256 5.159180346875427C36.460850164563595 5.3620512327855945 36.494545501175146 5.6020868270028785 36.494545501175146 5.878089073114422V13.69390959647932C36.494545501175146 13.9706855873575 36.45935259404752 14.210696222066185 36.38846758962025 14.40984814119478C36.314088253988814 14.619108661306843 36.2012712751116 14.785987935814148 36.050515843160646 14.910485964716697C35.906499478532 15.028619318925953 35.74301469719445 15.117874521683673 35.56105987949204 15.177502787731827C35.38135141756374 15.236007875892929 35.18392170452863 15.264886027344462 34.97051790598878 15.264886027344462H33.58476598845279V4.2598642924673005H34.97051790598878C35.20039498020539 4.2598642924673005 35.407808496680964 4.291363192321955 35.59176007507146 4.3547603441688825ZM33.58476598845279 30.118389433924726V19.294498852966132H34.97051790598878C35.18392170452863 19.294498852966132 35.38210020282178 19.3263721454498 35.56380542543817 19.38936994515911C35.74675862348462 19.452392704377022 35.91099219008021 19.548012581828036 36.055008554708856 19.675156318642305C36.20426641614374 19.806767807496183 36.314837039246854 19.97928793094735 36.38846758962025 20.191169199462536C36.45935259404752 20.395562615397374 36.494545501175146 20.636696427993108 36.494545501175146 20.9116004557262V28.683217689358457C36.494545501175146 28.959519449573214 36.460850164563595 29.1973835665422 36.39395868151251 29.397558825523443C36.32581922303135 29.606220317429077 36.2184933360464 29.772949834884773 36.07722251736388 29.896249807374467C35.93944602988552 30.016305043746016 35.776710033806 30.106658464882184 35.588764934039325 30.166810880610964C35.40506295073484 30.225715320909682 35.198398219517294 30.25441875580101 34.97051790598878 30.25441875580101H33.58476598845279V30.118389433924726Z" fill="#847964"></path></svg> 