<svg width="105" height="62" viewBox="0 0 105 62" fill="none" xmlns="http://www.w3.org/2000/svg">
<g clip-path="url(#clip0_2648_85)">
<path d="M104.02 30.21L52.53 0.1C52.45 0.05 52.28 0 52.18 0C52.08 0 51.91 0.05 51.83 0.09L0.34 30.21C0.13 30.33 0 30.56 0 30.81C0 31.06 0.13 31.28 0.34 31.41L51.83 61.52C51.91 61.57 52.09 61.61 52.18 61.61C52.3 61.61 52.42 61.58 52.53 61.52L104.02 31.41C104.23 31.29 104.37 31.06 104.37 30.81C104.37 30.56 104.24 30.33 104.02 30.21ZM100.44 30.8L84.4 40.18V21.42L100.44 30.8ZM74.21 23.32V15.47L80.92 19.4L74.21 23.33V23.32ZM82.05 21.42V41.55L74.21 46.13V26L82.05 21.42ZM71.87 27.38V47.51L53.36 58.34V38.21L71.87 27.39V27.38ZM53.36 23.6V3.27L70.74 13.44L53.36 23.61V23.6ZM71.87 15.47V24.69L53.36 35.52V26.3L71.87 15.47ZM51 38.21V58.34L32.49 47.51V27.38L51 38.2V38.21ZM51 26.29V35.51L32.49 24.68V15.46L51 26.29ZM51 3.27V23.6L33.62 13.43L51 3.27ZM30.15 26.01V46.14L22.31 41.56V21.43L30.15 26.01ZM30.15 15.47V23.32L23.44 19.39L30.15 15.46V15.47ZM19.96 21.42V40.18L3.92 30.8L19.96 21.42Z" fill="#AA794F"/>
</g>
<defs>
<clipPath id="clip0_2648_85">
<rect width="104.36" height="61.61" fill="white"/>
</clipPath>
</defs>
</svg>
