<?xml version="1.0" encoding="utf-8"?>
<!-- Generator: Adobe Illustrator 17.1.0, SVG Export Plug-In . SVG Version: 6.00 Build 0)  -->
<!DOCTYPE svg PUBLIC "-//W3C//DTD SVG 1.1//EN" "http://www.w3.org/Graphics/SVG/1.1/DTD/svg11.dtd">
<svg version="1.1" id="Слой_1" xmlns="http://www.w3.org/2000/svg" xmlns:xlink="http://www.w3.org/1999/xlink" x="0px" y="0px"
	 viewBox="0 0 325 165" enable-background="new 0 0 325 165" xml:space="preserve">
<path fill="#8F9090" d="M0,145h2v9.1h11.5V145h2v20h-2v-9.1H2v9.1H0V145z"/>
<path fill="#8F9090" d="M34.8,145c5.8,0,10.2,4.3,10.2,9.8c0,5.7-4.3,10.1-10.2,10.1c-5.8,0-10.2-4.4-10.2-10.1
	C24.7,149.3,29,145,34.8,145z M34.8,163.1c4.7,0,8.1-3.6,8.1-8.3c0-4.5-3.4-8-8.1-8c-4.7,0-8.1,3.5-8.1,8
	C26.7,159.5,30.2,163.1,34.8,163.1z"/>
<path fill="#8F9090" d="M63.1,145c5.8,0,10.2,4.3,10.2,9.8c0,5.7-4.3,10.1-10.2,10.1c-5.8,0-10.2-4.4-10.2-10.1
	C53,149.3,57.3,145,63.1,145z M63.1,163.1c4.7,0,8.1-3.6,8.1-8.3c0-4.5-3.4-8-8.1-8c-4.7,0-8.1,3.5-8.1,8
	C55,159.5,58.5,163.1,63.1,163.1z"/>
<path fill="#8F9090" d="M82.5,145h2v8.7h3.3l5.4-8.7h2.2l-6,9.4v0.1l6.4,10.5h-2.3l-5.7-9.6h-3.3v9.6h-2V145z"/>
<path fill="#8F9090" d="M110.1,145h2.1l7.3,20h-2.1l-2.3-6.4h-8l-2.3,6.4h-2.1L110.1,145z M114.6,156.9l-2.6-7.2
	c-0.3-0.9-0.8-2.6-0.8-2.6h-0.1c0,0-0.4,1.7-0.8,2.6l-2.6,7.2H114.6z"/>
<path fill="#8F9090" d="M127.7,145h2v9.1h11.5V145h2v20h-2v-9.1h-11.5v9.1h-2V145z"/>
<path fill="#8F9090" d="M168.4,146.7h-7.1V145h16.3v1.8h-7.2V165h-2V146.7z"/>
<path fill="#8F9090" d="M193.5,145c5.8,0,10.2,4.3,10.2,9.8c0,5.7-4.3,10.1-10.2,10.1c-5.8,0-10.1-4.4-10.1-10.1
	C183.3,149.3,187.7,145,193.5,145z M193.5,163.1c4.7,0,8.1-3.6,8.1-8.3c0-4.5-3.4-8-8.1-8c-4.6,0-8.1,3.5-8.1,8
	C185.4,159.5,188.8,163.1,193.5,163.1z"/>
<path fill="#8F9090" d="M212.9,145h6.8c3.1,0,5.4,1.9,5.4,5c0,2.1-1,3.6-2.5,4.4v0.1c2,0.6,3.3,2.6,3.3,4.9c0,3.6-2.6,5.6-6,5.6h-7
	V145z M219.7,153.6c2,0,3.4-1.4,3.4-3.5c0-2-1.3-3.4-3.4-3.4h-4.8v6.9H219.7z M220,163.2c2.4,0,3.9-1.5,3.9-3.9s-1.6-4-3.9-4h-5.1
	v7.8H220z"/>
<path fill="#8F9090" d="M240,145h2.1l7.3,20h-2.1l-2.3-6.4h-8l-2.3,6.4h-2.1L240,145z M244.4,156.9l-2.6-7.2
	c-0.3-0.9-0.8-2.6-0.8-2.6H241c0,0-0.4,1.7-0.8,2.6l-2.6,7.2H244.4z"/>
<path fill="#8F9090" d="M265.7,145c2.5,0,5.3,0.7,7.2,2.5l-1,1.4c-1.6-1.3-3.9-2.1-6.1-2.1c-4.9,0-8,3.5-8,8c0,4.6,3.2,8.3,8.1,8.3
	c2.4,0,4.7-0.9,6.4-2.5l1.1,1.3c-1.7,1.6-4.1,3-7.6,3c-6.1,0-10.1-4.5-10.1-10.1C255.7,149.3,259.9,145,265.7,145z"/>
<path fill="#8F9090" d="M290.2,145c2.5,0,5.3,0.7,7.2,2.5l-1,1.4c-1.6-1.3-3.9-2.1-6.1-2.1c-4.9,0-8,3.5-8,8c0,4.6,3.2,8.3,8.1,8.3
	c2.4,0,4.7-0.9,6.4-2.5l1.1,1.3c-1.7,1.6-4.1,3-7.6,3c-6.1,0-10.1-4.5-10.1-10.1C280.2,149.3,284.3,145,290.2,145z"/>
<path fill="#8F9090" d="M314.8,145c5.8,0,10.2,4.3,10.2,9.8c0,5.7-4.3,10.1-10.2,10.1c-5.8,0-10.1-4.4-10.1-10.1
	C304.6,149.3,309,145,314.8,145z M314.8,163.1c4.7,0,8.1-3.6,8.1-8.3c0-4.5-3.4-8-8.1-8c-4.6,0-8.1,3.5-8.1,8
	C306.7,159.5,310.1,163.1,314.8,163.1z"/>
<path fill="#7B6345" d="M101.9,17.2V0H54.5c0.7,0.9,1.5,2.5,2.3,4.8c0.7,2.1,1.1,5.2,1.2,9.5V66v51.7c-0.1,4.2-0.5,7.4-1.2,9.5
	c-0.8,2.3-1.6,3.9-2.3,4.8h47.4v-17.2H80.5V74.1h21.4V66v-8.1H80.5V17.2H101.9z"/>
<path fill="#7B6345" d="M54.3,66L31.7,52.4v-30c0,0,0-5.3-4.8-5.3c-4.8,0-4.8,5.3-4.8,5.3v24.7c0,2,0.4,3.5,1.2,4.6
	c0.8,1.1,1.9,2,3.2,2.7L46,66.1c2.3,1.3,4.3,3,5.9,5.2c1.6,2.2,2.4,4.9,2.4,8.3v36.2c0,5.9-1.5,10-4.5,12.5c-3,2.5-7.1,3.7-12.3,3.7
	H15.9c-5,0-8.9-1.3-11.7-3.9c-2.8-2.6-4.2-6.8-4.2-12.4V68.1l22.1,12.3v29.1c0,0.8,0,5.3,4.8,5.3c4.8,0,4.8-4.5,4.8-5.3V84.8
	c0-1.4-0.5-2.7-1.5-4c-1-1.3-2.1-2.3-3.4-3L7.9,66.9c-2.2-1.3-4.1-3-5.6-5c-1.5-2-2.3-4.7-2.3-8V16.7c0-6,1.5-10.2,4.5-12.8
	C7.4,1.3,11.6,0,16.8,0h20.8c5.3,0,9.3,1.3,12.3,3.9c2.9,2.6,4.4,6.8,4.4,12.6V66z"/>
<path fill="#7B6345" d="M105.5,0h37.3c5.2,0,9.4,1.3,12.5,4c3.1,2.7,4.6,6.7,4.6,11.9v33.7c0,3.4-0.5,6.1-1.6,8.2
	c-1,2-2.3,3.7-3.9,4.8c-1.5,1.2-3.1,2-4.7,2.5c-1.6,0.5-3,0.8-4,0.9c1.2,0.2,2.6,0.6,4.4,1c1.8,0.4,3.4,1.2,4.9,2.4
	c1.5,1.2,2.8,2.8,3.9,4.8c1.1,2,1.7,4.8,1.7,8.2V116c0,5.3-1.5,9.2-4.6,11.9c-3.1,2.7-7.3,4-12.5,4h-38V0z M136.7,18.5
	c-0.9-0.9-2.2-1.3-3.9-1.3h-4.7v40.7h4.7c1.5,0,2.8-0.4,3.8-1.2c1-0.8,1.5-2.2,1.5-4.2V22.8C138.1,20.8,137.6,19.4,136.7,18.5z
	 M128.1,74.2v40.5h4.7c1.6,0,2.9-0.4,3.9-1.2c0.9-0.8,1.4-2.2,1.4-4.2V79.8c0-2-0.5-3.4-1.5-4.3c-1-0.9-2.2-1.3-3.8-1.3H128.1z"/>
<path fill="#7B6345" d="M211.2,0h38c5.2,0,9.4,1.3,12.5,4c3.1,2.7,4.6,6.7,4.6,11.9v34c0,3.6-0.6,6.5-1.7,8.5
	c-1.1,2-2.5,3.6-4.2,4.7c-1.7,1.1-3.5,1.8-5.4,2.2c-1.9,0.4-3.6,0.6-5.2,0.9c2.1,0.2,4.1,0.5,6.1,0.9c2,0.4,3.7,1.1,5.2,2.1
	c1.5,1.1,2.7,2.6,3.7,4.6c0.9,2,1.4,4.7,1.4,8.2v34.3c0,4.9,0.4,8.5,1.2,10.8c0.8,2.3,1.6,3.9,2.3,4.8H246c-0.2-0.3-0.7-1.5-1.3-3.5
	c-0.6-2-1-4.9-1-8.8v-40c0-2.3-0.4-3.9-1.2-4.6c-0.8-0.7-2.2-1.1-4-1.1h-4.7V132h-22.6V0z M242.3,18.5c-0.9-0.9-2.2-1.3-3.9-1.3
	h-4.7V58h4.7c1.5,0,2.8-0.4,3.8-1.2c1-0.8,1.5-2.2,1.5-4.2V22.8C243.7,20.8,243.3,19.4,242.3,18.5z"/>
<path fill="#7B6345" d="M320.5,3.9c3,2.6,4.5,6.7,4.5,12.5v99.3c0,5.7-1.5,9.9-4.5,12.5c-3,2.6-7,3.9-12.2,3.9h-21.5
	c-5.1,0-9.2-1.3-12.3-3.9c-3-2.6-4.6-6.7-4.6-12.5V16.3c0-5.7,1.5-9.9,4.6-12.5c3-2.6,7.1-3.9,12.3-3.9h21.5
	C313.5,0,317.5,1.3,320.5,3.9z M302.4,109.5V22.7c0,0,0-5.5-4.8-5.5c-4.8,0-4.8,5.4-4.8,5.4v86.9c0,0,0,5.3,4.8,5.3
	C302.4,114.8,302.4,109.5,302.4,109.5z"/>
<path fill="#7B6345" d="M207.5,17.2V0h-47.4c0.7,0.9,1.5,2.5,2.3,4.8c0.7,2.1,1.1,5.2,1.2,9.5V66v51.7c-0.1,4.2-0.5,7.4-1.2,9.5
	c-0.8,2.3-1.6,3.9-2.3,4.8h47.4v-17.2h-21.4V74.1h21.4V66v-8.1h-21.4V17.2H207.5z"/>
</svg>
