<?xml version="1.0" encoding="UTF-8"?> <svg xmlns="http://www.w3.org/2000/svg" width="1253.933" height="425.195" viewBox="0 0 1253.933 425.195"><g id="logo_shiazo_white" data-name="logo shiazo_white" transform="translate(15661 16996)"><path id="path2" d="M312.252,159.716c-30.992,34.966-52.809,44.636-63.4,90.535-11.144,48.315,9.755,95.978,9.755,95.978s-39.551-44.371-31.844-96.757c11.47-78.1,70.005-70.337,107.87-134.054,0,0-1.184,20.379-22.379,44.3ZM484.824,325.511h0a8.788,8.788,0,1,0,10.48-6.7A8.778,8.778,0,0,0,484.824,325.511ZM471.161,365.78h0a8.793,8.793,0,1,0,11.688-4.24A8.8,8.8,0,0,0,471.161,365.78Zm-22.077,36.355h0a8.788,8.788,0,1,0,12.322-1.619,8.8,8.8,0,0,0-12.322,1.619Zm-29.4,30.75h0a8.786,8.786,0,1,0,12.382,1.063,8.784,8.784,0,0,0-12.382-1.063Zm-35.335,23.671h0a8.8,8.8,0,1,0,11.869,3.727,8.8,8.8,0,0,0-11.869-3.727Zm-39.605,15.469h0A8.787,8.787,0,1,0,349.3,489h0a8.787,8.787,0,1,0-4.56-16.973ZM302.714,478.5h0a8.788,8.788,0,1,0,9.169,8.4,8.783,8.783,0,0,0-9.169-8.4ZM260.246,475.8h0a8.788,8.788,0,1,0,7.163,10.16,8.774,8.774,0,0,0-7.163-10.16ZM219.4,463.969h0a8.793,8.793,0,1,0,4.766,11.482A8.8,8.8,0,0,0,219.4,463.969Zm-37.322-20.428h0a8.789,8.789,0,1,0,2.18,12.243,8.787,8.787,0,0,0-2.18-12.243Zm-32.019-28.008h0a8.8,8.8,0,0,0-12.944,11.911h.012a8.791,8.791,0,0,0,12.932-11.911ZM124.821,381.3h0a8.794,8.794,0,1,0-3.189,12.02,8.784,8.784,0,0,0,3.189-12.02Zm-17.226-38.874h0a8.792,8.792,0,1,0-5.726,11.041,8.79,8.79,0,0,0,5.726-11.041Zm-8.353-41.694h0a8.79,8.79,0,1,0-7.979,9.531,8.787,8.787,0,0,0,7.979-9.531Zm.815-42.541h0a8.793,8.793,0,1,0-9.839,7.6A8.788,8.788,0,0,0,100.057,258.194Zm9.96-41.345h0a8.79,8.79,0,1,0-11.253,5.273A8.77,8.77,0,0,0,110.017,216.85Zm18.73-38.192h0a8.787,8.787,0,1,0-12.129,2.718A8.783,8.783,0,0,0,128.747,178.658Zm26.558-33.245h0a8.79,8.79,0,1,0-12.437.036A8.788,8.788,0,0,0,155.306,145.413Zm33.082-26.746h0a8.8,8.8,0,1,0-12.159-2.634,8.8,8.8,0,0,0,12.159,2.634Zm38.071-18.954h0a8.8,8.8,0,1,0-11.289-5.225A8.8,8.8,0,0,0,226.458,99.714Zm41.266-10.226h0a8.791,8.791,0,1,0-9.888-7.538,8.776,8.776,0,0,0,9.888,7.538Zm42.535-1.069h0a8.791,8.791,0,1,0-8.039-9.483A8.784,8.784,0,0,0,310.259,88.419ZM352,96.519h0a8.792,8.792,0,1,0-5.8-11.011A8.8,8.8,0,0,0,352,96.519ZM390.985,113.5h0a8.792,8.792,0,1,0-3.256-12A8.792,8.792,0,0,0,390.985,113.5Zm34.4,25.036h0a8.791,8.791,0,1,0-.586-12.419A8.783,8.783,0,0,0,425.384,138.54Zm28.2,31.862h0a8.8,8.8,0,1,0,2.1-12.255,8.808,8.808,0,0,0-2.1,12.255Zm20.651,37.165h0a8.794,8.794,0,1,0,4.705-11.525A8.773,8.773,0,0,0,474.23,207.566ZM486.3,248.331h0a8.792,8.792,0,1,0,7.109-10.214A8.8,8.8,0,0,0,486.3,248.331Zm3.1,34.894h0a8.8,8.8,0,1,0,8.788-8.8A8.784,8.784,0,0,0,489.4,283.225ZM210.748,253.64c-2.416,29.548,19.189,54.8,19.189,54.8s-10.19-17.087-7.466-52.555c3.546-46.261,34.411-68.531,34.411-68.531s-42.982,27.591-46.134,66.29Zm107.285,64.768s38.252,32.139,37.443,68.217c-.84,36.99-27.875,53.805-27.875,53.805s43.133-18.1,41.266-55.919C367.381,354.377,318.033,318.408,318.033,318.408Zm-24.662-23.973c-18.06-21.841-19.087-30.116-19.087-30.116,8.468,46.231,46.285,66.031,47.439,118.731,1.286,59.67-39.3,66.87-39.3,66.87s67.988-9.719,67.988-66.453c0-42.879-36.9-64.672-57.037-89.031Zm7.979-121.479c-30.7,32.647-50.206,48.5-49.916,106.789s28.111,77.283,26.679,122.367c-1.431,45.059-36.446,50.465-36.446,50.465s75.792,7.363,74.9-69.981c-.664-56.777-41.931-69.558-44.769-130.829-1.431-31.083,29.554-78.812,29.554-78.812Z" transform="translate(-15742.695 -17066.867)" fill="#fff" fill-rule="evenodd"></path><path id="path4" d="M1229.53,250.867c0,25.183,10.486,44.063,29.965,44.063,17.99,0,29.076-17.685,29.076-44.36,0-21.581-8.391-43.757-29.076-43.757C1237.918,206.813,1229.53,229.293,1229.53,250.867Zm106.1-1.492c0,53.65-38.066,78.227-77.325,78.227-42.864,0-75.83-28.177-75.83-75.53,0-47.653,31.17-77.931,78.527-77.931,44.653,0,74.628,30.874,74.628,75.233ZM1058.694,298.23l46.151-57.845c8.394-9.593,14.984-17.085,23.082-25.779v-.6h-64.145V177.744h119.89v27.568l-44.06,55.451c-8.095,9.29-15.587,18.584-23.975,26.672v.6h70.432v36.269H1058.69Zm-50.65-43.167c-23.975,0-42.558,5.7-42.558,23.082,0,11.688,7.789,17.385,17.981,17.385,11.085,0,20.678-7.492,23.675-16.782a32.513,32.513,0,0,0,.9-7.795Zm44.057,33.874c0,13.789.6,27.271,2.4,35.369h-41.063l-2.7-14.688h-.9c-9.593,11.688-24.577,17.978-41.959,17.978-29.672,0-47.36-21.577-47.36-44.956,0-38.063,34.17-56.047,86.019-56.047v-1.8c0-8.088-4.2-19.183-26.672-19.183-14.984,0-30.874,5.1-40.458,11.094l-8.394-29.372c10.189-5.7,30.268-13.192,56.943-13.192,48.855,0,64.139,28.773,64.139,63.546ZM865.984,177.744h45.555V324.306H865.984Zm47.06-40.76c0,12.584-9.29,22.773-24.58,22.773-14.388,0-23.678-10.189-23.678-22.773,0-12.89,9.593-22.782,24.281-22.782S912.741,124.094,913.044,136.984ZM708.34,111.5H753.9v83.921h.6a49.033,49.033,0,0,1,17.978-15.281,52.022,52.022,0,0,1,23.675-5.7c29.082,0,51.255,20.082,51.255,64.439v85.423H801.848V243.679c0-19.183-6.59-32.363-23.672-32.363-11.99,0-19.486,7.789-22.782,16.177-1.2,2.7-1.5,6.593-1.5,9.893v86.921H708.34ZM568.681,277.252c11.984,6.29,31.164,12.584,50.647,12.584,20.981,0,32.076-8.691,32.076-21.88,0-12.59-9.59-19.782-33.871-28.173-33.568-11.987-55.748-30.568-55.748-59.94,0-34.473,29.073-60.543,76.426-60.543,23.082,0,39.565,4.492,51.555,10.192l-10.2,36.562a94.445,94.445,0,0,0-41.953-9.6c-19.786,0-29.375,9.3-29.375,19.489,0,12.883,11.085,18.584,37.464,28.473,35.662,13.186,52.151,31.764,52.151,60.24,0,33.864-25.779,62.64-81.227,62.64-23.076,0-45.855-6.3-57.243-12.587Z" transform="translate(-15742.695 -17066.867)" fill="#fff" fill-rule="evenodd"></path><path id="path6" d="M564.87,371.277h3.565l.378,1.436h21.308l.469-1.436h3.6l4.673,14.9-5.032,1.979a45.992,45.992,0,0,0-2.4-4.836,12.117,12.117,0,0,0-3.306-3.505,4.864,4.864,0,0,0-2.781-.974,1,1,0,0,0-.9.35,3.176,3.176,0,0,0-.241,1.595v24.437a15.912,15.912,0,0,0,.128,2.713,1.785,1.785,0,0,0,.465.862,1.654,1.654,0,0,0,.893.428,22.872,22.872,0,0,0,3.037.113v5.875H570.314v-5.875h1.105a6.692,6.692,0,0,0,2.357-.259,1.728,1.728,0,0,0,.787-.915,8.854,8.854,0,0,0,.268-2.722v-24.99a2.5,2.5,0,0,0-.224-1.342c-.135-.178-.44-.269-.912-.269a5.723,5.723,0,0,0-3.143,1.181,11.249,11.249,0,0,0-3.084,3.352c-.359.571-1.127,2.16-2.3,4.783l-4.948-1.979Zm143.555.705a18.708,18.708,0,0,1,14.559,6.156q5.559,6.153,5.557,15.811a25.112,25.112,0,0,1-2.547,11.51,18.711,18.711,0,0,1-7.024,7.754,20.344,20.344,0,0,1-10.811,2.729q-8.368,0-13.7-5.182-6.443-6.237-6.443-16.689,0-9.721,5.644-15.909t14.766-6.181Zm.112,6.765a7.914,7.914,0,0,0-6.843,3.628q-3.2,4.566-3.2,11.791c0,4.807.993,8.622,2.979,11.416a8.211,8.211,0,0,0,13.592,0q3.006-4.284,3-11.478a24.331,24.331,0,0,0-1.283-8.5,11.366,11.366,0,0,0-3.487-5.147A7.6,7.6,0,0,0,708.537,378.747Zm269.1-6.034,3.247,14.257-5.039,1.614a20.067,20.067,0,0,0-5.707-7.449,11.253,11.253,0,0,0-6.8-2.36,5.687,5.687,0,0,0-3.665,1.074,3.005,3.005,0,0,0-1.339,2.366,3.962,3.962,0,0,0,1.22,2.781,10.253,10.253,0,0,0,4.38,2.273l7.252,2.382q6.045,1.949,8.613,5.182a11.962,11.962,0,0,1,2.538,7.592,12.524,12.524,0,0,1-3.884,9.312,15,15,0,0,1-10.832,4.205,17.1,17.1,0,0,1-5.529-.865,19.737,19.737,0,0,1-5.251-2.909l-1.189,3.044h-4.04l-2.678-16.483L954,397.356a20.063,20.063,0,0,0,5.562,8.394,12.212,12.212,0,0,0,8.3,3.369,8.383,8.383,0,0,0,3.372-.58,4.453,4.453,0,0,0,2.016-1.614,3.844,3.844,0,0,0,.674-2.132,3.961,3.961,0,0,0-1.57-3.138,17.841,17.841,0,0,0-5.579-2.588l-6.309-2.072a26.841,26.841,0,0,1-3.88-1.717,14.19,14.19,0,0,1-3.762-2.641,10.847,10.847,0,0,1-2.179-3.515,11.945,11.945,0,0,1-.867-4.52,11.9,11.9,0,0,1,6.668-10.848,15.5,15.5,0,0,1,7.4-1.77,14.734,14.734,0,0,1,8.853,2.863l1.065-2.133Zm192.086,0,3.246,14.257-5.038,1.614a20.168,20.168,0,0,0-5.707-7.449,11.252,11.252,0,0,0-6.8-2.36,5.69,5.69,0,0,0-3.668,1.074,3,3,0,0,0-1.336,2.366,3.97,3.97,0,0,0,1.217,2.781,10.214,10.214,0,0,0,4.38,2.273l7.249,2.382c4.037,1.3,6.9,3.028,8.616,5.182a11.967,11.967,0,0,1,2.541,7.592,12.518,12.518,0,0,1-3.89,9.312,14.981,14.981,0,0,1-10.829,4.205,17.066,17.066,0,0,1-5.526-.865,19.648,19.648,0,0,1-5.254-2.909l-1.189,3.044h-4.04l-2.675-16.483,5.063-1.374a20.007,20.007,0,0,0,5.56,8.394,12.207,12.207,0,0,0,8.3,3.369,8.416,8.416,0,0,0,3.374-.58,4.413,4.413,0,0,0,2.01-1.614,3.845,3.845,0,0,0,.674-2.132,3.948,3.948,0,0,0-1.567-3.138,17.846,17.846,0,0,0-5.575-2.588l-6.312-2.072a26.684,26.684,0,0,1-3.878-1.717,14.082,14.082,0,0,1-3.761-2.641,10.8,10.8,0,0,1-2.185-3.515,11.94,11.94,0,0,1-.868-4.52,11.9,11.9,0,0,1,6.671-10.848,15.5,15.5,0,0,1,7.4-1.77,14.725,14.725,0,0,1,8.85,2.863l1.068-2.133Zm-569.2,8.5h14.75v4.714h-1.367a3.246,3.246,0,0,0-1.532.247,1.413,1.413,0,0,0-.587.733,7.854,7.854,0,0,0-.168,2.063v5.922h10.995v-6.362a6.583,6.583,0,0,0-.122-1.583,1.257,1.257,0,0,0-.593-.808,4.631,4.631,0,0,0-1.817-.212h-1.148V381.21h14.8v4.714H632.5a4.185,4.185,0,0,0-1.67.219,1.275,1.275,0,0,0-.571.687,8.062,8.062,0,0,0-.165,2.138v18.424a7.264,7.264,0,0,0,.206,2.207,1.307,1.307,0,0,0,.634.706,5.617,5.617,0,0,0,1.932.206h.868v4.7h-14.8v-4.7h.977a4.572,4.572,0,0,0,1.851-.247,1.338,1.338,0,0,0,.674-.705,7.745,7.745,0,0,0,.178-2.167V400.2H611.621v7.193a10.729,10.729,0,0,0,.122,2.116,1.3,1.3,0,0,0,.674.805,5.413,5.413,0,0,0,1.839.2h1.021v4.7h-14.75v-4.7h1a4.288,4.288,0,0,0,1.754-.247,1.3,1.3,0,0,0,.68-.681,6,6,0,0,0,.184-1.926V389.18a8.2,8.2,0,0,0-.184-2.251,1.376,1.376,0,0,0-.568-.768,3.249,3.249,0,0,0-1.52-.237h-1.346Zm36.477,0h25.214l3.44,10.751-3.924,1.579a14.976,14.976,0,0,0-2.329-4.233,6.4,6.4,0,0,0-2.941-2.138,12.091,12.091,0,0,0-3.758-.524H648.1v8.487h1.511a6.068,6.068,0,0,0,2.307-.287,1.635,1.635,0,0,0,.849-.874,6.8,6.8,0,0,0,.262-2.379v-1.286h3.855v14.373h-3.855v-1.455a5.54,5.54,0,0,0-.316-2.173,1.736,1.736,0,0,0-.855-.924,7.1,7.1,0,0,0-2.4-.25H648.1v7.8a5.9,5.9,0,0,0,.1,1.508.786.786,0,0,0,.428.415,3.755,3.755,0,0,0,1.349.15h2.535a11.312,11.312,0,0,0,4.792-.911,9.438,9.438,0,0,0,3.474-2.956,14.936,14.936,0,0,0,2.354-4.836l3.961,1.533-3.961,12.628H637v-4.7h.755a5.371,5.371,0,0,0,2.036-.247,1.354,1.354,0,0,0,.734-.852,10.13,10.13,0,0,0,.116-2.07V388.815a6.664,6.664,0,0,0-.188-1.97,1.426,1.426,0,0,0-.574-.7,3.6,3.6,0,0,0-1.539-.219H637Zm95.038,0h18.624a23.7,23.7,0,0,1,3.93.369,9.148,9.148,0,0,1,3.859,1.608,8.621,8.621,0,0,1,2.672,3.14,9.469,9.469,0,0,1,.949,4.3,8.4,8.4,0,0,1-2.453,6.275,11.743,11.743,0,0,1-5.819,3.134l6.218,8.135.259.366a6.378,6.378,0,0,0,1.111,1.233,3.266,3.266,0,0,0,.986.574,4.464,4.464,0,0,0,1.393.172h1.3v4.7h-9.687l-9.7-14.65h-2.513v6.78a8.394,8.394,0,0,0,.172,2.228,1.377,1.377,0,0,0,.552.712,3.409,3.409,0,0,0,1.523.228h1.393v4.7H732.041v-4.7h1.339a3.3,3.3,0,0,0,1.5-.253,1.569,1.569,0,0,0,.661-.768,8.061,8.061,0,0,0,.109-1.832v-19.13a5.446,5.446,0,0,0-.163-1.6.942.942,0,0,0-.53-.625,2.6,2.6,0,0,0-1.189-.265l-.609.022h-1.124Zm11.132,5.585v8.8h4.48a10.848,10.848,0,0,0,3.961-.549,4.146,4.146,0,0,0,1.964-1.57,4.5,4.5,0,0,0,.661-2.488,4.138,4.138,0,0,0-.621-2.3,3.583,3.583,0,0,0-1.748-1.421,10.644,10.644,0,0,0-3.718-.468Zm23.372-5.585H781.27v4.714h-1.339a3.593,3.593,0,0,0-1.549.219,1.449,1.449,0,0,0-.565.733,6.343,6.343,0,0,0-.184,1.916v18.815a7.621,7.621,0,0,0,.153,1.976,1.055,1.055,0,0,0,.521.627,2.45,2.45,0,0,0,1.358.3h1.6v4.7H766.546v-4.7h1.189a4.428,4.428,0,0,0,1.674-.206,1.266,1.266,0,0,0,.568-.659,5.645,5.645,0,0,0,.187-1.8v-18.88a7.435,7.435,0,0,0-.187-2.091,1.439,1.439,0,0,0-.615-.762,3.308,3.308,0,0,0-1.473-.19h-1.342Zm35.693,15.868h14.747v4.76h-1.1a3.371,3.371,0,0,0-1.48.212,1.378,1.378,0,0,0-.6.693,5.687,5.687,0,0,0-.193,1.82v10.648h-4.442l-1.142-2.438a15.56,15.56,0,0,1-4.227,2.266,13.727,13.727,0,0,1-4.545.756,13.3,13.3,0,0,1-7.536-2.263,15.627,15.627,0,0,1-5.382-6.34,20.457,20.457,0,0,1-1.985-9.119,19.745,19.745,0,0,1,1.964-8.94,15.365,15.365,0,0,1,5.476-6.224,13.742,13.742,0,0,1,7.632-2.279,14.321,14.321,0,0,1,3.98.574,11.987,11.987,0,0,1,3.384,1.521l.8-1.514h3.044l2.726,11.27-3.983,1.452a31.429,31.429,0,0,0-3.215-5.039,8.941,8.941,0,0,0-2.713-2.1,6.615,6.615,0,0,0-2.975-.755,6.284,6.284,0,0,0-3.84,1.339,8.806,8.806,0,0,0-2.832,3.915,16.489,16.489,0,0,0-1.039,6.225,19.407,19.407,0,0,0,1.133,6.971,9.876,9.876,0,0,0,2.981,4.376,6.518,6.518,0,0,0,7.005.718A4.491,4.491,0,0,0,805.782,408a4.576,4.576,0,0,0,.524-2.36v-1.245a5.246,5.246,0,0,0-.153-1.636,1.551,1.551,0,0,0-.637-.706,3.7,3.7,0,0,0-1.573-.212h-1.7Zm16.633-15.868H833.6v4.714h-1.339a3.6,3.6,0,0,0-1.552.219,1.416,1.416,0,0,0-.565.733,6.363,6.363,0,0,0-.184,1.916v18.815a7.765,7.765,0,0,0,.153,1.976,1.054,1.054,0,0,0,.522.627,2.454,2.454,0,0,0,1.361.3h1.6v4.7H818.872v-4.7h1.19a4.39,4.39,0,0,0,1.67-.206,1.208,1.208,0,0,0,.568-.659,5.47,5.47,0,0,0,.187-1.8v-18.88a7.2,7.2,0,0,0-.187-2.091,1.417,1.417,0,0,0-.608-.762,3.333,3.333,0,0,0-1.474-.19h-1.345Zm17.909,0h12.284l8.857,19.842V388.915a7.261,7.261,0,0,0-.156-1.951,1.622,1.622,0,0,0-.584-.821,3.139,3.139,0,0,0-1.43-.219h-1.473V381.21h12.474v4.714h-1.38a2.938,2.938,0,0,0-1.486.265,1.363,1.363,0,0,0-.618.728,6.969,6.969,0,0,0-.175,2v26.3h-6.216l-11.216-25.055v17.525a6.6,6.6,0,0,0,.162,1.923,1.267,1.267,0,0,0,.581.659,3.085,3.085,0,0,0,1.471.247h1.442v4.7H836.781v-4.7h1.3a3.742,3.742,0,0,0,1.483-.206,1.459,1.459,0,0,0,.637-.721,3.706,3.706,0,0,0,.24-1.533v-19.5a4.626,4.626,0,0,0-.215-1.648,1.57,1.57,0,0,0-.59-.762,2.556,2.556,0,0,0-1.233-.219h-1.621Zm43.742,0h6.78l9.075,26.25a6.816,6.816,0,0,0,1.308,2.588,3.28,3.28,0,0,0,2.107.462v4.7H885.5v-4.7l.865-.022a2.942,2.942,0,0,0,1.67-.359,1.043,1.043,0,0,0,.477-.865,8.119,8.119,0,0,0-.416-1.8l-.886-3.093H878.01l-1.121,3.434a6.315,6.315,0,0,0-.353,1.442,1.1,1.1,0,0,0,.256.7,1.4,1.4,0,0,0,.812.469,11.282,11.282,0,0,0,2.029.1v4.7H867.942v-4.7a4.445,4.445,0,0,0,1.645-.225,2.019,2.019,0,0,0,.852-.652,6.3,6.3,0,0,0,.75-1.636Zm-.931,18.306h6.041l-2.944-9.359Zm22.021-18.306h14.772v4.714h-1.3a4.343,4.343,0,0,0-1.364.116,1.526,1.526,0,0,0-.765.749,3.961,3.961,0,0,0-.234,1.589V407.8a6.3,6.3,0,0,0,.1,1.442.762.762,0,0,0,.4.419,2.788,2.788,0,0,0,1.167.168,10.853,10.853,0,0,0,4.667-.855,8.759,8.759,0,0,0,3.188-2.747,16.97,16.97,0,0,0,2.432-5.123l3.983,1.53-3.983,12.578H901.613v-4.7h1.455a2.625,2.625,0,0,0,1.336-.271,1.663,1.663,0,0,0,.671-.715,4.38,4.38,0,0,0,.2-1.576V388.69a5.546,5.546,0,0,0-.2-1.745,1.566,1.566,0,0,0-.6-.784,2.431,2.431,0,0,0-1.264-.237h-1.6Zm85.856-1.149h2.854l.3,1.149h17.047l.372-1.149h2.884l3.74,11.925-4.034,1.583a34.458,34.458,0,0,0-1.923-3.871,9.674,9.674,0,0,0-2.644-2.806,3.845,3.845,0,0,0-2.226-.777.788.788,0,0,0-.712.281,2.5,2.5,0,0,0-.2,1.271V407.22a12.391,12.391,0,0,0,.106,2.17,1.425,1.425,0,0,0,.368.69,1.294,1.294,0,0,0,.715.341,17.843,17.843,0,0,0,2.428.09v4.7H991.827v-4.7h.886a5.388,5.388,0,0,0,1.883-.206,1.388,1.388,0,0,0,.63-.734,7.191,7.191,0,0,0,.212-2.179V387.4a2.059,2.059,0,0,0-.175-1.074.95.95,0,0,0-.736-.212,4.571,4.571,0,0,0-2.51.946,8.931,8.931,0,0,0-2.472,2.682c-.284.453-.9,1.73-1.839,3.827l-3.961-1.583Zm28.958,1.149h25.208l3.446,10.751-3.923,1.579a14.985,14.985,0,0,0-2.335-4.233,6.415,6.415,0,0,0-2.935-2.138,12.146,12.146,0,0,0-3.758-.524h-4.614v8.487h1.517a6.066,6.066,0,0,0,2.307-.287,1.66,1.66,0,0,0,.85-.874,7.02,7.02,0,0,0,.256-2.379v-1.286h3.862v14.373h-3.862v-1.455a5.579,5.579,0,0,0-.309-2.173,1.738,1.738,0,0,0-.855-.924,7.169,7.169,0,0,0-2.406-.25h-1.358v7.8a5.758,5.758,0,0,0,.1,1.508.773.773,0,0,0,.421.415,3.771,3.771,0,0,0,1.355.15h2.535a11.329,11.329,0,0,0,4.792-.911,9.486,9.486,0,0,0,3.475-2.956,14.953,14.953,0,0,0,2.348-4.836l3.961,1.533-3.961,12.628h-26.116v-4.7h.755a5.354,5.354,0,0,0,2.029-.247,1.365,1.365,0,0,0,.74-.852,10.888,10.888,0,0,0,.109-2.07V388.815a6.74,6.74,0,0,0-.181-1.97,1.439,1.439,0,0,0-.581-.7,3.566,3.566,0,0,0-1.533-.219h-1.339Zm42.876,0h6.781l9.078,26.25a6.831,6.831,0,0,0,1.3,2.588,3.293,3.293,0,0,0,2.11.462v4.7h-14.291v-4.7l.868-.022a2.934,2.934,0,0,0,1.667-.359,1.037,1.037,0,0,0,.474-.865,7.924,7.924,0,0,0-.415-1.8l-.887-3.093h-9.2l-1.12,3.434a6.224,6.224,0,0,0-.35,1.442,1.1,1.1,0,0,0,.25.7,1.426,1.426,0,0,0,.812.469,11.34,11.34,0,0,0,2.032.1v4.7h-11.691v-4.7a4.479,4.479,0,0,0,1.649-.225,2.014,2.014,0,0,0,.849-.652,6.316,6.316,0,0,0,.749-1.636Zm-.93,18.306h6.041l-2.941-9.359Zm21.977-18.306h13.67l5.241,20.691,5.429-20.691H1118.6v4.714h-1.492a2.038,2.038,0,0,0-1.676.565,3.544,3.544,0,0,0-.472,2.16v19.3a5.567,5.567,0,0,0,.135,1.583,1.262,1.262,0,0,0,.543.68,2.284,2.284,0,0,0,1.255.3h1.708v4.7h-14.531v-4.7h1.13a4.116,4.116,0,0,0,1.664-.225,1.318,1.318,0,0,0,.64-.665,4.6,4.6,0,0,0,.209-1.673V387.039l-7.367,28.174h-4.183l-7.121-27.268v20.663a2.223,2.223,0,0,0,.225,1.1,1.577,1.577,0,0,0,.649.6,3.394,3.394,0,0,0,1.355.206h1.452v4.7H1080.35v-4.7h1.212a3.7,3.7,0,0,0,1.573-.228,1.464,1.464,0,0,0,.631-.737,5.573,5.573,0,0,0,.206-1.836V388.65a5.455,5.455,0,0,0-.16-1.7,1.456,1.456,0,0,0-.578-.784,2.43,2.43,0,0,0-1.24-.237h-1.645Zm99.2-1.149h2.857l.3,1.149h17.047l.365-1.149h2.887l3.74,11.925-4.031,1.583a36.846,36.846,0,0,0-1.923-3.871,9.72,9.72,0,0,0-2.644-2.806,3.862,3.862,0,0,0-2.225-.777.79.79,0,0,0-.715.281,2.537,2.537,0,0,0-.193,1.271V407.22a12.553,12.553,0,0,0,.1,2.17,1.457,1.457,0,0,0,.375.69,1.3,1.3,0,0,0,.714.341,17.744,17.744,0,0,0,2.423.09v4.7H1183.9v-4.7h.887a5.421,5.421,0,0,0,1.886-.206,1.382,1.382,0,0,0,.627-.734,6.917,6.917,0,0,0,.219-2.179V387.4a2.008,2.008,0,0,0-.181-1.074.943.943,0,0,0-.734-.212,4.578,4.578,0,0,0-2.513.946,8.965,8.965,0,0,0-2.469,2.682q-.431.679-1.839,3.827l-3.961-1.583Zm45.131.568a14.979,14.979,0,0,1,11.647,4.923q4.443,4.921,4.445,12.646a20.058,20.058,0,0,1-2.042,9.212,14.937,14.937,0,0,1-5.613,6.206,16.308,16.308,0,0,1-8.65,2.179,15.079,15.079,0,0,1-10.964-4.143q-5.155-5-5.154-13.355,0-7.768,4.517-12.727a15.25,15.25,0,0,1,11.813-4.942Zm.091,5.41a6.336,6.336,0,0,0-5.475,2.9,16.052,16.052,0,0,0-2.56,9.431c0,3.846.793,6.9,2.379,9.134a6.57,6.57,0,0,0,10.873,0q2.407-3.428,2.4-9.181a19.656,19.656,0,0,0-1.027-6.809,9.12,9.12,0,0,0-2.788-4.117A6.1,6.1,0,0,0,1224.77,386.04Zm19.211-4.83h12.284l8.856,19.842V388.915a7.271,7.271,0,0,0-.156-1.951,1.624,1.624,0,0,0-.584-.821,3.142,3.142,0,0,0-1.43-.219h-1.473V381.21h12.474v4.714h-1.38a2.938,2.938,0,0,0-1.486.265,1.363,1.363,0,0,0-.618.728,6.967,6.967,0,0,0-.175,2v26.3h-6.216l-11.216-25.055v17.525a6.619,6.619,0,0,0,.162,1.923,1.268,1.268,0,0,0,.581.659,3.082,3.082,0,0,0,1.47.247h1.443v4.7h-12.537v-4.7h1.3a3.74,3.74,0,0,0,1.483-.206,1.458,1.458,0,0,0,.637-.721,3.719,3.719,0,0,0,.24-1.533v-19.5a4.636,4.636,0,0,0-.215-1.648,1.573,1.573,0,0,0-.59-.762,2.553,2.553,0,0,0-1.233-.219h-1.62Zm32.806,0H1302l3.446,10.751-3.924,1.579a14.9,14.9,0,0,0-2.335-4.233,6.4,6.4,0,0,0-2.934-2.138,12.151,12.151,0,0,0-3.759-.524h-4.611v8.487h1.514a6.08,6.08,0,0,0,2.307-.287,1.648,1.648,0,0,0,.849-.874,7,7,0,0,0,.259-2.379v-1.286h3.855v14.373h-3.855v-1.455a5.543,5.543,0,0,0-.315-2.173,1.732,1.732,0,0,0-.852-.924,7.16,7.16,0,0,0-2.407-.25h-1.355v7.8a5.824,5.824,0,0,0,.1,1.508.772.772,0,0,0,.421.415,3.793,3.793,0,0,0,1.355.15h2.531a11.325,11.325,0,0,0,4.792-.911,9.438,9.438,0,0,0,3.474-2.956,14.96,14.96,0,0,0,2.354-4.836l3.958,1.533-3.958,12.628h-26.123v-4.7h.755a5.372,5.372,0,0,0,2.036-.247,1.378,1.378,0,0,0,.737-.852,10.507,10.507,0,0,0,.112-2.07V388.815a6.844,6.844,0,0,0-.184-1.97,1.455,1.455,0,0,0-.581-.7,3.553,3.553,0,0,0-1.532-.219h-1.343Zm54.708,0,2.591,11.407-4.027,1.293a16.141,16.141,0,0,0-4.567-5.96,9,9,0,0,0-5.435-1.889,4.555,4.555,0,0,0-2.938.855,2.431,2.431,0,0,0-1.068,1.9,3.192,3.192,0,0,0,.971,2.226,8.247,8.247,0,0,0,3.508,1.817l5.8,1.9q4.837,1.564,6.886,4.149a9.534,9.534,0,0,1,2.038,6.068,10.019,10.019,0,0,1-3.115,7.455,11.973,11.973,0,0,1-8.663,3.363,13.5,13.5,0,0,1-4.42-.693,15.431,15.431,0,0,1-4.2-2.328l-.958,2.438h-3.228l-2.147-13.183,4.055-1.1a15.961,15.961,0,0,0,4.452,6.712,9.774,9.774,0,0,0,6.633,2.7,6.742,6.742,0,0,0,2.7-.469,3.508,3.508,0,0,0,1.614-1.289,3.046,3.046,0,0,0,.533-1.7,3.16,3.16,0,0,0-1.251-2.512,14.194,14.194,0,0,0-4.458-2.073l-5.051-1.658a21.535,21.535,0,0,1-3.1-1.374,11.414,11.414,0,0,1-3.012-2.11,8.718,8.718,0,0,1-1.742-2.81,9.5,9.5,0,0,1-.7-3.621,9.526,9.526,0,0,1,5.341-8.679,12.377,12.377,0,0,1,5.922-1.414,11.838,11.838,0,0,1,7.08,2.285l.849-1.7Z" transform="translate(-15742.695 -17066.867)" fill="#fff" fill-rule="evenodd"></path></g></svg> 