<?xml version="1.0" encoding="UTF-8"?> <svg xmlns="http://www.w3.org/2000/svg" width="360" height="134" viewBox="0 0 360 134" fill="none"><g clip-path="url(#clip0_1155_85)"><path fill-rule="evenodd" clip-rule="evenodd" d="M358.735 56.6201C358.253 58.5449 357.384 59.2186 355.26 59.2186C344.16 59.1224 332.962 59.2186 321.862 59.2186H321.669C320.317 59.2186 319.449 60.566 319.931 61.721C321.186 64.7045 324.178 66.5331 328.233 66.8219C332.673 67.1106 336.727 66.3407 340.395 63.6458C341.167 63.0684 342.229 63.1646 343.001 63.6458C345.801 65.9557 348.6 68.2655 351.496 70.6716C352.268 71.3453 352.365 72.5003 351.592 73.174C349.276 75.3876 346.573 77.1199 343.677 78.3711C335.858 81.7396 327.75 82.3171 319.642 80.0073C309.603 77.2162 303.135 68.2655 302.942 57.2938C302.653 41.606 313.367 28.0357 328.715 24.5709C340.009 22.0686 350.144 25.7258 356.226 34.099C360.666 40.2586 360.762 48.7281 358.735 56.5238V56.6201ZM343.58 44.9746C343.58 44.9746 343.484 42.376 340.974 40.3549L340.878 40.2586C340.492 39.9699 340.105 39.6812 339.623 39.3924H339.237C336.824 38.2375 332.576 37.9488 328.715 39.3924C326.109 40.3549 323.792 41.991 322.248 44.5896C321.669 45.552 322.248 46.8032 323.406 46.8032H342.133C343.001 46.8032 343.677 46.0333 343.484 45.1671L343.58 44.9746ZM297.247 62.5872C296.572 66.5331 295.22 74.5214 294.641 77.9861C294.448 79.0448 293.579 79.7185 292.517 79.7185H279.583C278.714 79.7185 278.038 78.9486 278.231 78.0824C278.617 75.8688 279.293 72.1153 279.583 70.4791C280.837 63.2609 282.189 55.9464 283.444 48.7281C284.119 44.6858 283.058 41.606 280.451 40.0662C277.169 38.1413 271.571 38.7187 268.385 41.3173C265.49 43.7234 264.235 46.8994 263.656 50.4605C262.304 57.9675 259.794 72.8852 258.926 77.9861C258.733 79.0448 257.864 79.7185 256.802 79.7185H243.964C243.095 79.7185 242.419 78.9486 242.613 78.0824L251.59 27.362C251.783 26.3033 252.651 25.6296 253.713 25.6296H266.648C267.517 25.6296 268.192 26.3996 267.999 27.2657V27.9395C267.903 28.5169 268.192 29.0944 268.578 29.3831C269.061 29.7681 269.93 29.7681 270.509 29.2869C273.887 26.1108 277.652 23.9935 283.444 23.9935C285.181 23.9935 287.015 24.2822 288.753 24.7634C296.765 26.7845 301.687 34.3878 300.626 42.9535C299.853 49.498 298.599 56.0426 297.44 62.5872H297.247ZM243.288 13.2142V13.3104L244.35 20.3362C244.35 20.7212 244.253 21.1062 243.867 21.2986C243.771 21.2986 243.578 21.3949 243.385 21.3949C243.192 21.3949 242.999 21.3949 242.806 21.2024L237.69 16.9677H237.593L231.126 21.1062C230.836 21.2986 230.354 21.2986 230.064 21.1062C229.774 20.8174 229.678 20.4324 229.871 20.0475L233.153 13.4067V13.3104L228.133 9.0757C227.844 8.78697 227.747 8.40199 227.844 8.11326C227.94 7.72829 228.326 7.5358 228.713 7.5358H236.145L236.242 7.43956L239.717 0.510017C239.91 0.125042 240.296 -0.067445 240.682 0.0287986C241.068 0.0287986 241.358 0.413773 241.454 0.798748L242.516 7.43956C242.516 7.43956 242.516 7.5358 242.613 7.5358H249.563C249.949 7.5358 250.335 7.82453 250.431 8.20951C250.528 8.59448 250.431 8.97946 250.045 9.26819L243.481 13.5992L243.288 13.2142ZM229.581 25.7258H242.516C243.385 25.7258 244.06 26.4958 243.867 27.362C242.419 35.4465 236.338 69.9017 234.89 78.0824C234.697 79.0448 233.829 79.8148 232.767 79.8148H219.832C218.963 79.8148 218.288 79.0448 218.481 78.1786C219.832 70.2867 226.01 35.6389 227.458 27.4582C227.651 26.4958 228.519 25.7258 229.581 25.7258ZM210.855 77.9861C210.662 78.9486 209.793 79.7185 208.731 79.7185H195.797C194.928 79.7185 194.252 78.9486 194.445 78.0824L206.704 8.97946C206.897 8.01702 207.766 7.24707 208.828 7.24707H221.763C222.631 7.24707 223.307 8.01702 223.114 8.88321C221.473 18.4113 212.592 68.1693 210.855 78.0824V77.9861ZM195.121 40.8361C194.928 41.7985 194.059 42.5685 193.094 42.6647C191.067 42.8572 187.785 43.1459 186.337 43.6272C179.966 45.6483 177.07 50.653 176.008 57.005L172.34 78.0824C172.147 79.0448 171.279 79.8148 170.313 79.8148H157.379C156.51 79.8148 155.834 79.0448 156.027 78.1786L165.004 27.5545C165.197 26.4958 166.066 25.8221 167.128 25.8221H179.87C180.738 25.8221 181.414 26.592 181.221 27.4582C181.221 28.0357 181.028 28.5169 181.028 28.7094C180.835 30.1531 182.476 30.923 183.538 29.9606C186.916 26.6883 191.26 24.6672 196.376 24.1859C197.341 24.1859 198.113 24.9559 197.92 25.8221C197.341 29.0944 196.086 36.2164 195.217 40.8361H195.121ZM148.595 77.9861C148.402 79.0448 147.533 79.7185 146.471 79.7185H133.247C132.764 79.7185 132.474 79.4298 132.281 78.9486V78.7561C131.992 77.9861 131.123 77.6012 130.254 77.8899H130.061C127.648 78.9486 125.331 80.0073 122.822 80.4885C115.582 82.0284 108.439 81.6434 102.358 76.6387C97.1453 72.2115 94.7321 66.2444 94.5391 59.6036C94.153 46.8032 98.7863 36.3126 109.211 28.6132C115.582 23.9935 122.918 22.8385 130.544 24.2822C133.729 24.8597 136.336 26.3996 138.556 28.6132C139.424 29.4793 140.872 28.9981 141.065 27.8432V27.0733C141.355 26.1108 142.224 25.3409 143.286 25.3409H156.124C156.992 25.3409 157.668 26.1108 157.475 26.977C154.483 43.9159 151.49 60.7585 148.498 77.6974L148.595 77.9861ZM137.108 50.0755C137.108 49.113 137.108 48.2469 136.818 47.2844C135.563 41.4136 130.061 38.3338 123.401 39.6812C114.52 41.5098 110.563 49.498 111.045 56.6201C111.431 62.4909 115.389 65.8594 121.277 65.9557C130.061 66.0519 136.915 59.2186 137.108 50.1717V50.0755ZM93.7669 39.5849C93.5738 40.5474 92.705 41.3173 91.6432 41.3173H84.2106C83.1488 41.3173 82.1835 42.0873 81.9905 43.1459C81.4113 46.0333 80.9287 48.7281 80.446 51.7116C79.9634 54.5027 79.4808 57.2938 78.9981 60.0848C78.4189 63.2609 79.5773 64.8008 82.8592 64.9932C84.4037 65.0895 85.9481 64.9932 87.5891 64.9932C88.4578 64.9932 89.1335 65.7632 88.9405 66.6294C88.2648 70.2867 87.2995 75.4838 86.8169 77.9861C86.6238 78.9486 85.8516 79.6223 84.8863 79.7185C80.446 80.1035 75.3301 80.296 71.1794 79.0448C64.712 77.1199 61.3335 71.9228 62.1058 64.6083C62.878 57.8712 64.1329 51.2304 65.2912 44.5896C66.8356 35.5427 68.4766 26.592 69.9245 17.5451C70.2141 15.7165 70.7933 14.7541 72.7238 14.2729C76.778 13.2142 80.8321 12.0593 85.0794 10.8081C86.2377 10.5194 87.2995 11.4818 87.1064 12.6367C86.4307 16.3902 85.7551 20.1437 85.1759 23.8972C84.9828 24.7634 85.6585 25.5334 86.5273 25.5334H94.4425C95.3113 25.5334 95.987 26.3033 95.7939 27.1695C95.0217 31.4042 94.346 35.3502 93.5738 39.4887L93.7669 39.5849ZM49.4606 27.0733C48.4954 27.5545 47.2405 27.2657 46.6613 26.3033C44.8273 23.3198 42.5107 21.0099 39.0357 20.1437C36.1398 19.3738 33.3405 19.3738 30.5412 20.6249C28.128 21.6836 26.5836 23.416 26.3905 26.1108C26.1009 28.7094 27.7419 30.3455 29.769 31.308C32.6648 32.7516 35.6572 33.9066 38.553 35.1577C41.1593 36.3126 43.9586 37.2751 46.5648 38.43C56.7002 43.0497 60.4648 51.1342 57.6655 61.9135C55.7349 69.5167 52.1634 74.7139 43.9586 78.1786C33.0509 82.7983 20.0197 82.5096 11.2357 77.6974C5.44402 74.5214 1.77597 69.4205 0.135002 64.7045C-0.251109 63.5496 0.23153 62.3947 1.29333 61.8172C5.05791 59.9886 10.4635 57.39 13.3593 56.0426C14.3246 55.5614 15.5794 56.0426 16.0621 56.9088C20.0197 64.1271 28.5141 67.3993 36.2364 63.6458C41.6419 60.951 40.8697 54.8877 36.3329 52.3853C33.9197 51.1342 31.3134 50.268 28.9002 49.113C24.8461 47.2844 20.7919 45.6483 16.9308 43.4347C9.69124 39.2 7.76069 32.5591 9.01555 24.5709C11.1392 9.94189 22.7225 4.45601 32.8579 3.30108C40.4836 2.43489 47.5301 3.68606 53.9009 8.20951C57.1829 10.6156 60.0787 14.5616 61.6231 18.0264C62.1058 19.1813 61.6231 20.5287 60.5613 21.1062L49.4606 27.0733Z" fill="#6C6D70"></path><path d="M63.5542 100.989V106.763H50.523V133.423H44.0557V106.763H31.0244V100.989H63.5542Z" fill="#6C6D70"></path><path d="M105.447 129.284C101.683 132.364 96.3736 134 89.6167 134C82.8598 134 77.5508 132.46 73.7862 129.284C70.0216 126.204 68.1876 122.162 68.1876 117.254C68.1876 112.345 70.0216 108.399 73.7862 105.223C77.5508 102.143 82.8598 100.507 89.6167 100.507C96.3736 100.507 101.683 102.047 105.447 105.223C109.212 108.399 111.046 112.345 111.046 117.254C111.046 122.162 109.212 126.108 105.447 129.284ZM78.8056 125.242C81.4119 127.359 84.9834 128.418 89.5202 128.418C94.057 128.418 97.725 127.359 100.235 125.242C102.841 123.125 104.096 120.43 104.096 117.254C104.096 114.078 102.841 111.383 100.235 109.265C97.6285 107.148 94.057 106.089 89.5202 106.089C84.9834 106.089 81.3153 107.148 78.8056 109.265C76.2959 111.383 74.9445 114.078 74.9445 117.254C74.9445 120.43 76.1994 123.125 78.8056 125.242Z" fill="#6C6D70"></path><path d="M141.549 117.446C144.734 117.446 147.147 118.12 148.788 119.467C150.429 120.815 151.298 122.643 151.298 124.953C151.298 127.263 150.236 129.573 148.209 131.113C146.085 132.653 142.997 133.423 138.749 133.423H120.023V100.989H139.135C143.479 100.989 146.761 101.758 148.885 103.395C151.008 104.935 152.167 106.956 152.167 109.362C152.167 111.768 151.298 113.596 149.464 115.04C147.726 116.484 145.024 117.157 141.452 117.157V117.446H141.549ZM138.749 106.571H126.587V115.04H138.749C143.19 115.04 145.313 113.596 145.313 110.805C145.313 108.014 144.734 108.496 143.672 107.726C142.61 106.956 140.969 106.571 138.653 106.571H138.749ZM137.881 127.937C142.321 127.937 144.444 126.589 144.444 123.798C144.444 121.007 142.224 119.756 137.881 119.756H126.587V128.033H137.881V127.937Z" fill="#6C6D70"></path><path d="M189.619 133.423L185.758 125.627H166.839L162.978 133.423H155.931L172.244 100.989H180.449L196.762 133.423H189.619ZM183.442 121.007L176.395 106.956H176.106L169.059 121.007H183.442Z" fill="#6C6D70"></path><path d="M220.219 133.904C213.944 133.904 208.925 132.364 205.353 129.188C201.685 126.012 199.948 122.066 199.948 117.254C199.948 112.442 201.782 108.399 205.546 105.223C209.311 102.143 214.524 100.507 221.184 100.507C227.844 100.507 226.203 100.796 228.423 101.374C230.74 101.951 232.381 102.528 233.346 103.106L234.794 103.972V110.132C234.698 110.035 234.505 109.843 234.215 109.65C233.926 109.458 233.346 109.169 232.478 108.688C231.609 108.207 230.74 107.822 229.775 107.437C228.81 107.052 227.555 106.763 226.01 106.474C224.466 106.186 222.921 105.993 221.28 105.993C216.647 105.993 213.076 107.052 210.566 109.169C208.056 111.287 206.705 113.981 206.705 117.157C206.705 120.334 207.96 123.028 210.469 125.146C212.979 127.263 216.358 128.322 220.508 128.322C224.659 128.322 223.404 128.225 224.852 127.937C226.3 127.648 227.458 127.359 228.423 126.974C229.389 126.589 230.258 126.204 230.933 125.819C231.609 125.434 232.188 125.146 232.574 124.857L233.057 124.472V130.632C232.96 130.632 232.767 130.824 232.478 131.017C232.188 131.209 231.705 131.402 230.837 131.786C229.968 132.171 229.099 132.46 228.23 132.749C227.362 133.038 226.107 133.326 224.562 133.519C223.114 133.711 221.57 133.904 220.026 133.904H220.219Z" fill="#6C6D70"></path><path d="M263.27 133.904C256.996 133.904 251.976 132.364 248.405 129.188C244.833 126.012 242.999 122.066 242.999 117.254C242.999 112.442 244.833 108.399 248.598 105.223C252.362 102.143 257.575 100.507 264.235 100.507C270.896 100.507 269.255 100.796 271.475 101.374C273.792 101.951 275.432 102.528 276.398 103.106L277.846 103.972V110.132C277.749 110.035 277.556 109.843 277.266 109.65C276.977 109.458 276.398 109.169 275.529 108.688C274.66 108.207 273.792 107.822 272.826 107.437C271.861 107.052 270.606 106.763 269.062 106.474C267.517 106.186 265.973 105.993 264.332 105.993C259.698 105.993 256.127 107.052 253.617 109.169C251.011 111.287 249.756 113.981 249.756 117.157C249.756 120.334 251.011 123.028 253.521 125.146C256.03 127.263 259.312 128.322 263.56 128.322C267.807 128.322 266.455 128.225 267.903 127.937C269.351 127.648 270.51 127.359 271.475 126.974C272.44 126.589 273.309 126.204 273.985 125.819C274.66 125.434 275.239 125.146 275.626 124.857L276.108 124.472V130.632C276.012 130.632 275.819 130.824 275.529 131.017C275.239 131.113 274.757 131.402 273.888 131.786C273.019 132.171 272.151 132.46 271.282 132.749C270.317 133.038 269.158 133.326 267.614 133.519C266.166 133.711 264.621 133.904 263.077 133.904H263.27Z" fill="#6C6D70"></path><path d="M323.31 129.284C319.546 132.364 314.237 134 307.48 134C300.723 134 295.414 132.46 291.649 129.284C287.885 126.204 286.051 122.162 286.051 117.254C286.051 112.345 287.885 108.399 291.649 105.223C295.414 102.047 300.723 100.507 307.48 100.507C314.237 100.507 319.546 102.047 323.31 105.223C327.075 108.303 328.909 112.345 328.909 117.254C328.909 122.162 327.075 126.108 323.31 129.284ZM296.765 125.242C299.371 127.359 302.943 128.418 307.48 128.418C312.017 128.418 315.685 127.359 318.194 125.242C320.801 123.125 322.055 120.43 322.055 117.254C322.055 114.078 320.801 111.383 318.194 109.265C315.588 107.148 312.017 106.089 307.48 106.089C302.943 106.089 299.275 107.148 296.765 109.265C294.159 111.383 292.904 114.078 292.904 117.254C292.904 120.43 294.159 123.125 296.765 125.242Z" fill="#6C6D70"></path></g><defs><clipPath id="clip0_1155_85"><rect width="360" height="134" fill="white"></rect></clipPath></defs></svg> 